<svg xmlns="http://www.w3.org/2000/svg" xmlns:xlink="http://www.w3.org/1999/xlink" version="1.1" viewBox="0 0 3508 2480"><g id="v-3" class="joint-viewport" transform="matrix(1,0,0,1,0,0)"><g id="j_605" model-id="4bb9241e-356e-4c6b-b20b-c5d929b1a9e3" class="joint-theme-default joint-cell joint-type-structurizr joint-type-structurizr-diagrammetadata joint-element" data-type="structurizr.diagramMetadata" transform="translate(20,2464)"><g id="v-7535"><text class="structurizrDiagramMetadata structurizrMetadata" id="v-7536" font-weight="normal" font-size="22px" text-anchor="start" fill="#777777" pointer-events="none" font-family="Open Sans" display="block"></text></g></g><g id="j_604" model-id="7fdae5ee-4f31-4651-ab48-c87562db606f" class="joint-theme-default joint-cell joint-type-structurizr joint-type-structurizr-diagramdescription joint-element" data-type="structurizr.diagramDescription" transform="translate(20,2435)"><g id="v-7531"><text class="structurizrDiagramDescription structurizrMetadata" id="v-7532" font-size="22px" y="0.8em" xml:space="preserve" font-weight="normal" text-anchor="start" fill="#777777" pointer-events="none" font-family="Open Sans" transform="matrix(1,0,0,1,0,0)" display="block"><tspan id="v-7533" class="v-line" dy="0em" x="0">The system context diagram for Gamezeug. | Diagram created with Structurizr</tspan></text></g></g><g id="j_603" model-id="34efef50-d1f0-4a2f-8fb0-9e4dd2040dba" class="joint-theme-default joint-cell joint-type-structurizr joint-type-structurizr-diagramtitle joint-element" data-type="structurizr.diagramTitle" transform="translate(20,2389)"><g id="v-7527"><text class="structurizrDiagramTitle structurizrMetadata" id="v-7528" font-size="36px" y="0.8em" xml:space="preserve" font-weight="bold" text-anchor="start" fill="#000000" pointer-events="none" font-family="Open Sans" transform="matrix(1,0,0,1,0,0)" display="block"><tspan id="v-7529" class="v-line" dy="0em" x="0">System Context diagram for Gamezeug</tspan></text></g></g><g id="j_592" model-id="3b91e096-8c6d-458c-b8c1-06d90ca554f1" class="joint-theme-default joint-cell joint-type-structurizr joint-type-structurizr-box joint-element" data-type="structurizr.box" transform="translate(1529,1644)" style="cursor: move !important"><g class="structurizrElement" id="v-7340"><rect class="structurizrBox structurizrHighlightableElement" id="v-7341" rx="1" ry="1" stroke="#696969" stroke-width="2" pointer-events="visiblePainted" fill="#757575" width="450" height="300"></rect><text class="structurizrName" id="v-7342" font-size="34" y="0.8em" xml:space="preserve" font-weight="bold" text-anchor="middle" pointer-events="visible" font-family="Open Sans" fill="#ffffff" transform="matrix(1,0,0,1,225,75)"><tspan id="v-7347" class="v-line" dy="0em" x="0">Game 1</tspan></text><text class="structurizrMetaData" id="v-7343" font-size="19" y="0.8em" xml:space="preserve" text-anchor="middle" font-family="Open Sans" fill="#ffffff" transform="matrix(1,0,0,1,225,115)"><tspan id="v-7348" class="v-line" dy="0em" x="0">[Software System]</tspan></text><text class="structurizrDescription" id="v-7344" font-size="24" y="0.8em" xml:space="preserve" text-anchor="middle" font-family="Open Sans" fill="#ffffff" transform="matrix(1,0,0,1,225,165)"><tspan id="v-7349" class="v-line" dy="0em" x="0">An open source game which is</tspan><tspan id="v-7350" class="v-line" dy="1.2em" x="0">registered in Gamezeug</tspan></text><text class="structurizrNavigation" id="v-7345" font-weight="bold" text-anchor="middle" display="none" font-family="Open Sans" fill="#989898" font-size="24" transform="matrix(1,0,0,1,225,270)"></text><image class="structurizrIcon" id="v-7346"></image></g></g><g id="j_593" model-id="4aef0e9d-0cba-4d76-8854-e15043e6ada9" class="joint-theme-default joint-cell joint-type-structurizr joint-type-structurizr-box joint-element" data-type="structurizr.box" transform="translate(2579,1644)" style="cursor: move !important"><g class="structurizrElement" id="v-7354"><rect class="structurizrBox structurizrHighlightableElement" id="v-7355" rx="1" ry="1" stroke="#696969" stroke-width="2" pointer-events="visiblePainted" fill="#757575" width="450" height="300"></rect><text class="structurizrName" id="v-7356" font-size="34" y="0.8em" xml:space="preserve" font-weight="bold" text-anchor="middle" pointer-events="visible" font-family="Open Sans" fill="#ffffff" transform="matrix(1,0,0,1,225,75)"><tspan id="v-7361" class="v-line" dy="0em" x="0">Game 2</tspan></text><text class="structurizrMetaData" id="v-7357" font-size="19" y="0.8em" xml:space="preserve" text-anchor="middle" font-family="Open Sans" fill="#ffffff" transform="matrix(1,0,0,1,225,115)"><tspan id="v-7362" class="v-line" dy="0em" x="0">[Software System]</tspan></text><text class="structurizrDescription" id="v-7358" font-size="24" y="0.8em" xml:space="preserve" text-anchor="middle" font-family="Open Sans" fill="#ffffff" transform="matrix(1,0,0,1,225,165)"><tspan id="v-7363" class="v-line" dy="0em" x="0">An open source game which is</tspan><tspan id="v-7364" class="v-line" dy="1.2em" x="0">registered in Gamezeug</tspan></text><text class="structurizrNavigation" id="v-7359" font-weight="bold" text-anchor="middle" display="none" font-family="Open Sans" fill="#989898" font-size="24" transform="matrix(1,0,0,1,225,270)"></text><image class="structurizrIcon" id="v-7360"></image></g></g><g id="j_594" model-id="bce5c6f2-2965-4904-8911-19218d0f0e23" class="joint-theme-default joint-cell joint-type-structurizr joint-type-structurizr-person joint-element" data-type="structurizr.person" transform="translate(1179,444)" style="cursor: move !important"><g class="structurizrElement" id="v-7368"><rect class="structurizrPersonBody structurizrHighlightableElement" x="0" y="160" width="400" height="240" rx="70" id="v-7370" stroke="#073b6f" stroke-width="2" pointer-events="visiblePainted" fill="#08427b"></rect><circle class="structurizrPersonBody structurizrHighlightableElement" cx="200" cy="88.88888888888889" r="88.88888888888889" id="v-7369" stroke="#073b6f" stroke-width="2" pointer-events="visiblePainted" fill="#08427b"></circle><line class="structurizrPersonRightArm" x1="80" y1="266.6666666666667" x2="80" y2="400" style="stroke-width:2px" id="v-7376" stroke="#073b6f"></line><line class="structurizrPersonLeftArm" x1="320" y1="266.6666666666667" x2="320" y2="400" style="stroke-width:2px" id="v-7377" stroke="#073b6f"></line><text class="structurizrName" id="v-7371" font-size="34px" y="0.8em" xml:space="preserve" font-weight="bold" text-anchor="middle" pointer-events="visible" font-family="Open Sans" fill="#ffffff" transform="matrix(1,0,0,1,200,205)"><tspan id="v-7378" class="v-line" dy="0em" x="0">Game Admin</tspan></text><text class="structurizrMetaData" id="v-7372" font-size="19px" y="0.8em" xml:space="preserve" text-anchor="middle" font-family="Open Sans" fill="#ffffff" transform="matrix(1,0,0,1,200,245)"><tspan id="v-7379" class="v-line" dy="0em" x="0">[Person]</tspan></text><text class="structurizrDescription" id="v-7373" font-size="24px" y="0.8em" xml:space="preserve" text-anchor="middle" font-family="Open Sans" fill="#ffffff" transform="matrix(1,0,0,1,200,295)"><tspan id="v-7380" class="v-line" dy="0em" x="0">A person who can administer</tspan><tspan id="v-7381" class="v-line" dy="1.2em" x="0">games in Gamezeug</tspan></text><text class="structurizrNavigation" id="v-7374" font-weight="bold" text-anchor="middle" display="none" font-family="Open Sans" fill="#46719c" font-size="24" transform="matrix(1,0,0,1,200,371.20001220703125)"></text><image class="structurizrIcon" id="v-7375"></image></g></g><g id="j_595" model-id="dc790adf-1916-4b01-9672-bdb77b17618f" class="joint-theme-default joint-cell joint-type-structurizr joint-type-structurizr-person joint-element" data-type="structurizr.person" transform="translate(2179,444)" style="cursor: move !important"><g class="structurizrElement" id="v-7385"><rect class="structurizrPersonBody structurizrHighlightableElement" x="0" y="160" width="400" height="240" rx="70" id="v-7387" stroke="#073b6f" stroke-width="2" pointer-events="visiblePainted" fill="#08427b"></rect><circle class="structurizrPersonHead structurizrHighlightableElement" cx="200" cy="88.88888888888889" r="88.88888888888889" id="v-7386" stroke="#073b6f" stroke-width="2" pointer-events="visiblePainted" fill="#08427b"></circle><line class="structurizrPersonRightArm" x1="80" y1="266.6666666666667" x2="80" y2="400" style="stroke-width:2px" id="v-7393" stroke="#073b6f"></line><line class="structurizrPersonLeftArm" x1="320" y1="266.6666666666667" x2="320" y2="400" style="stroke-width:2px" id="v-7394" stroke="#073b6f"></line><text class="structurizrName" id="v-7388" font-size="34px" y="0.8em" xml:space="preserve" font-weight="bold" text-anchor="middle" pointer-events="visible" font-family="Open Sans" fill="#ffffff" transform="matrix(1,0,0,1,200,205)"><tspan id="v-7395" class="v-line" dy="0em" x="0">Gamer</tspan></text><text class="structurizrMetaData" id="v-7389" font-size="19px" y="0.8em" xml:space="preserve" text-anchor="middle" font-family="Open Sans" fill="#ffffff" transform="matrix(1,0,0,1,200,245)"><tspan id="v-7396" class="v-line" dy="0em" x="0">[Person]</tspan></text><text class="structurizrDescription" id="v-7390" font-size="24px" y="0.8em" xml:space="preserve" text-anchor="middle" font-family="Open Sans" fill="#ffffff" transform="matrix(1,0,0,1,200,295)"><tspan id="v-7397" class="v-line" dy="0em" x="0">A gamer person who likes to play</tspan><tspan id="v-7398" class="v-line" dy="1.2em" x="0">games</tspan></text><text class="structurizrNavigation" id="v-7391" font-weight="bold" text-anchor="middle" display="none" font-family="Open Sans" fill="#46719c" font-size="24" transform="matrix(1,0,0,1,200,371.20001220703125)"></text><image class="structurizrIcon" id="v-7392"></image></g></g><g id="j_596" model-id="405e8ef5-e3bd-4a8a-9468-36f2dd115489" class="joint-theme-default joint-cell joint-type-structurizr joint-type-structurizr-box joint-element" data-type="structurizr.box" transform="translate(1529,1094)" style="cursor: move !important"><g class="structurizrElement" id="v-7402"><rect class="structurizrBox structurizrHighlightableElement" id="v-7403" rx="1" ry="1" stroke="#0f5eaa" stroke-width="2" pointer-events="visiblePainted" fill="#1168bd" width="450" height="300"></rect><text class="structurizrName" id="v-7404" font-size="34" y="0.8em" xml:space="preserve" font-weight="bold" text-anchor="middle" pointer-events="visible" font-family="Open Sans" fill="#ffffff" transform="matrix(1,0,0,1,225,75)"><tspan id="v-7409" class="v-line" dy="0em" x="0">Gamezeug</tspan></text><text class="structurizrMetaData" id="v-7405" font-size="19" y="0.8em" xml:space="preserve" text-anchor="middle" font-family="Open Sans" fill="#ffffff" transform="matrix(1,0,0,1,225,115)"><tspan id="v-7410" class="v-line" dy="0em" x="0">[Software System]</tspan></text><text class="structurizrDescription" id="v-7406" font-size="24" y="0.8em" xml:space="preserve" text-anchor="middle" font-family="Open Sans" fill="#ffffff" transform="matrix(1,0,0,1,225,165)"><tspan id="v-7411" class="v-line" dy="0em" x="0">The second best open source gaming</tspan><tspan id="v-7412" class="v-line" dy="1.2em" x="0">platform</tspan></text><text class="structurizrNavigation" id="v-7407" font-weight="bold" text-anchor="middle" display="none" font-family="Open Sans" fill="#4d8ece" font-size="24" transform="matrix(1,0,0,1,225,270)"></text><image class="structurizrIcon" id="v-7408"></image></g></g><g id="j_597" model-id="7afd55d9-2d46-491e-82e6-d0f66c7f66a5" class="joint-theme-default joint-cell joint-type-structurizr joint-type-structurizr-box joint-element" data-type="structurizr.box" transform="translate(479,1644)" style="cursor: move !important"><g class="structurizrElement" id="v-7416"><rect class="structurizrBox structurizrHighlightableElement" id="v-7417" rx="1" ry="1" stroke="#696969" stroke-width="2" pointer-events="visiblePainted" fill="#757575" width="450" height="300"></rect><text class="structurizrName" id="v-7418" font-size="34" y="0.8em" xml:space="preserve" font-weight="bold" text-anchor="middle" pointer-events="visible" font-family="Open Sans" fill="#ffffff" transform="matrix(1,0,0,1,225,75)"><tspan id="v-7423" class="v-line" dy="0em" x="0">GitHub</tspan></text><text class="structurizrMetaData" id="v-7419" font-size="19" y="0.8em" xml:space="preserve" text-anchor="middle" font-family="Open Sans" fill="#ffffff" transform="matrix(1,0,0,1,225,115)"><tspan id="v-7424" class="v-line" dy="0em" x="0">[Software System]</tspan></text><text class="structurizrDescription" id="v-7420" font-size="24" y="0.8em" xml:space="preserve" text-anchor="middle" font-family="Open Sans" fill="#ffffff" transform="matrix(1,0,0,1,225,165)"><tspan id="v-7425" class="v-line" dy="0em" x="0">A hosting service for version control</tspan><tspan id="v-7426" class="v-line" dy="1.2em" x="0">using Git</tspan></text><text class="structurizrNavigation" id="v-7421" font-weight="bold" text-anchor="middle" display="none" font-family="Open Sans" fill="#989898" font-size="24" transform="matrix(1,0,0,1,225,270)"></text><image class="structurizrIcon" id="v-7422"></image></g></g><g id="j_598" model-id="5a605a87-de99-4a72-84f6-6199f3711af4" class="joint-theme-default joint-cell joint-type-structurizr joint-type-structurizr-relationship joint-link" data-type="structurizr.relationship"><path class="connection" stroke="#707070" id="v-7440" stroke-width="2" stroke-dasharray="30 30" fill="none" d="M 1504 844 1649 1077"></path><path class="marker-source" fill="black" stroke="black" transform="translate(1504,844) scale(1,1) rotate(58.03582932981064)"></path><path class="marker-target" fill="#707070" stroke="#707070" id="v-7442" d="M 20 0 L 0 10 L 20 20 z" transform="translate(1651.51611328125,1099.2939453125) scale(1,1) rotate(-121.96416306768515)"></path><path class="connection-wrap" id="v-7441" fill="none" d="M 1504 844 1649 1077"></path><title class="tooltip"></title><g class="labels"><g class="label" id="v-7432" label-idx="0"  transform="translate(1576.5, 960.5)"><rect id="v-7434" fill="#ffffff" rx="3" ry="3" stroke="#ffffff" stroke-width="20px" pointer-events="none" width="54.51531982421875" height="33.83709716796875" transform="matrix(1,0,0,1,-27.299999237060547,-16.899999618530273)"></rect><text id="v-7433" font-size="24px" y="0.8em" xml:space="preserve" text-anchor="middle" pointer-events="none" fill="#707070" font-family="Open Sans" font-weight="bold" transform="matrix(1,0,0,1,0,-9.800000190734863)"><tspan id="v-7435" class="v-line" dy="0em" x="0">uses</tspan></text></g><g class="label" id="v-7436" label-idx="1"  transform="translate(1576.5, 991.7)"><rect id="v-7438" fill="#ffffff" rx="3" ry="3" pointer-events="none" width="0" height="0" transform="matrix(1,0,0,1,0,0)"></rect><text id="v-7437" font-size="19px" y="0.8em" display="none" xml:space="preserve" text-anchor="middle" pointer-events="none" fill="#707070" font-family="Open Sans" font-weight="normal" transform="matrix(1,0,0,1,0,0)"><tspan id="v-7439" class="v-line v-empty-line" dy="0em" x="0" style="fill-opacity: 0; stroke-opacity: 0;">-</tspan></text></g></g><g class="marker-vertices" display="none"></g><g class="marker-arrowheads" id="v-7444" display="none"><g class="marker-arrowhead-group marker-arrowhead-group-source" id="v-7429"><path class="marker-arrowhead" end="source" d="M 26 0 L 0 13 L 26 26 z"></path></g><g class="marker-arrowhead-group marker-arrowhead-group-target" id="v-7430"><path class="marker-arrowhead" end="target" d="M 26 0 L 0 13 L 26 26 z"></path></g></g><g class="link-tools" id="v-7443" display="none"><g class="link-tool" id="v-7428" transform="translate(1525.1343994140625, 877.9608154296875) "><g class="tool-remove" event="remove"><circle r="11"></circle><path transform="scale(.8) translate(-16, -16)" d="M24.778,21.419 19.276,15.917 24.777,10.415 21.949,7.585 16.447,13.087 10.945,7.585 8.117,10.415 13.618,15.917 8.116,21.419 10.946,24.248 16.447,18.746 21.948,24.248z"></path><title>Remove link.</title></g><g class="tool-options" event="link:options"><circle r="11" transform="translate(25)"></circle><path fill="white" transform="scale(.55) translate(29, -16)" d="M31.229,17.736c0.064-0.571,0.104-1.148,0.104-1.736s-0.04-1.166-0.104-1.737l-4.377-1.557c-0.218-0.716-0.504-1.401-0.851-2.05l1.993-4.192c-0.725-0.91-1.549-1.734-2.458-2.459l-4.193,1.994c-0.647-0.347-1.334-0.632-2.049-0.849l-1.558-4.378C17.165,0.708,16.588,0.667,16,0.667s-1.166,0.041-1.737,0.105L12.707,5.15c-0.716,0.217-1.401,0.502-2.05,0.849L6.464,4.005C5.554,4.73,4.73,5.554,4.005,6.464l1.994,4.192c-0.347,0.648-0.632,1.334-0.849,2.05l-4.378,1.557C0.708,14.834,0.667,15.412,0.667,16s0.041,1.165,0.105,1.736l4.378,1.558c0.217,0.715,0.502,1.401,0.849,2.049l-1.994,4.193c0.725,0.909,1.549,1.733,2.459,2.458l4.192-1.993c0.648,0.347,1.334,0.633,2.05,0.851l1.557,4.377c0.571,0.064,1.148,0.104,1.737,0.104c0.588,0,1.165-0.04,1.736-0.104l1.558-4.377c0.715-0.218,1.399-0.504,2.049-0.851l4.193,1.993c0.909-0.725,1.733-1.549,2.458-2.458l-1.993-4.193c0.347-0.647,0.633-1.334,0.851-2.049L31.229,17.736zM16,20.871c-2.69,0-4.872-2.182-4.872-4.871c0-2.69,2.182-4.872,4.872-4.872c2.689,0,4.871,2.182,4.871,4.872C20.871,18.689,18.689,20.871,16,20.871z"></path><title>Link options.</title></g></g></g></g><g id="j_599" model-id="0c7d3659-c0cf-4ac3-a978-81fa28a4b617" class="joint-theme-default joint-cell joint-type-structurizr joint-type-structurizr-relationship joint-link" data-type="structurizr.relationship"><path class="connection" stroke="#707070" id="v-7458" stroke-width="2" stroke-dasharray="30 30" fill="none" d="M 2179 836 1924 1080"></path><path class="marker-source" fill="black" stroke="black" transform="translate(2179,836) scale(1,1) rotate(-223.80424554840445)"></path><path class="marker-target" fill="#707070" stroke="#707070" id="v-7460" d="M 20 0 L 0 10 L 20 20 z" transform="translate(1903.0780029296875,1086.7828369140625) scale(1,1) rotate(-43.80424554840444)"></path><path class="connection-wrap" id="v-7459" fill="none" d="M 2179 836 1924 1080"></path><title class="tooltip"></title><g class="labels"><g class="label" id="v-7450" label-idx="0"  transform="translate(2051.5, 958)"><rect id="v-7452" fill="#ffffff" rx="3" ry="3" stroke="#ffffff" stroke-width="20px" pointer-events="none" width="54.51531982421875" height="33.83709716796875" transform="matrix(1,0,0,1,-27.299999237060547,-16.899999618530273)"></rect><text id="v-7451" font-size="24px" y="0.8em" xml:space="preserve" text-anchor="middle" pointer-events="none" fill="#707070" font-family="Open Sans" font-weight="bold" transform="matrix(1,0,0,1,0,-9.800000190734863)"><tspan id="v-7453" class="v-line" dy="0em" x="0">uses</tspan></text></g><g class="label" id="v-7454" label-idx="1"  transform="translate(2051.5, 989.2)"><rect id="v-7456" fill="#ffffff" rx="3" ry="3" pointer-events="none" width="0" height="0" transform="matrix(1,0,0,1,0,0)"></rect><text id="v-7455" font-size="19px" y="0.8em" display="none" xml:space="preserve" text-anchor="middle" pointer-events="none" fill="#707070" font-family="Open Sans" font-weight="normal" transform="matrix(1,0,0,1,0,0)"><tspan id="v-7457" class="v-line v-empty-line" dy="0em" x="0" style="fill-opacity: 0; stroke-opacity: 0;">-</tspan></text></g></g><g class="marker-vertices" display="none"></g><g class="marker-arrowheads" id="v-7462" display="none"><g class="marker-arrowhead-group marker-arrowhead-group-source" id="v-7447"><path class="marker-arrowhead" end="source" d="M 26 0 L 0 13 L 26 26 z"></path></g><g class="marker-arrowhead-group marker-arrowhead-group-target" id="v-7448"><path class="marker-arrowhead" end="target" d="M 26 0 L 0 13 L 26 26 z"></path></g></g><g class="link-tools" id="v-7461" display="none"><g class="link-tool" id="v-7446" transform="translate(2150.099365234375, 863.654052734375) "><g class="tool-remove" event="remove"><circle r="11"></circle><path transform="scale(.8) translate(-16, -16)" d="M24.778,21.419 19.276,15.917 24.777,10.415 21.949,7.585 16.447,13.087 10.945,7.585 8.117,10.415 13.618,15.917 8.116,21.419 10.946,24.248 16.447,18.746 21.948,24.248z"></path><title>Remove link.</title></g><g class="tool-options" event="link:options"><circle r="11" transform="translate(25)"></circle><path fill="white" transform="scale(.55) translate(29, -16)" d="M31.229,17.736c0.064-0.571,0.104-1.148,0.104-1.736s-0.04-1.166-0.104-1.737l-4.377-1.557c-0.218-0.716-0.504-1.401-0.851-2.05l1.993-4.192c-0.725-0.91-1.549-1.734-2.458-2.459l-4.193,1.994c-0.647-0.347-1.334-0.632-2.049-0.849l-1.558-4.378C17.165,0.708,16.588,0.667,16,0.667s-1.166,0.041-1.737,0.105L12.707,5.15c-0.716,0.217-1.401,0.502-2.05,0.849L6.464,4.005C5.554,4.73,4.73,5.554,4.005,6.464l1.994,4.192c-0.347,0.648-0.632,1.334-0.849,2.05l-4.378,1.557C0.708,14.834,0.667,15.412,0.667,16s0.041,1.165,0.105,1.736l4.378,1.558c0.217,0.715,0.502,1.401,0.849,2.049l-1.994,4.193c0.725,0.909,1.549,1.733,2.459,2.458l4.192-1.993c0.648,0.347,1.334,0.633,2.05,0.851l1.557,4.377c0.571,0.064,1.148,0.104,1.737,0.104c0.588,0,1.165-0.04,1.736-0.104l1.558-4.377c0.715-0.218,1.399-0.504,2.049-0.851l4.193,1.993c0.909-0.725,1.733-1.549,2.458-2.458l-1.993-4.193c0.347-0.647,0.633-1.334,0.851-2.049L31.229,17.736zM16,20.871c-2.69,0-4.872-2.182-4.872-4.871c0-2.69,2.182-4.872,4.872-4.872c2.689,0,4.871,2.182,4.871,4.872C20.871,18.689,18.689,20.871,16,20.871z"></path><title>Link options.</title></g></g></g></g><g id="j_600" model-id="13d68347-ac15-4814-a88a-c9c00b8e1487" class="joint-theme-default joint-cell joint-type-structurizr joint-type-structurizr-relationship joint-link" data-type="structurizr.relationship"><path class="connection" stroke="#707070" id="v-7479" stroke-width="2" stroke-dasharray="30 30" fill="none" d="M 1529 1362 947 1667"></path><path class="marker-source" fill="black" stroke="black" transform="translate(1529,1362) scale(1,1) rotate(-207.6245574621958)"></path><path class="marker-target" fill="#707070" stroke="#707070" id="v-7481" d="M 20 0 L 0 10 L 20 20 z" transform="translate(924.3632202148438,1667.1400146484375) scale(1,1) rotate(-27.624562071483318)"></path><path class="connection-wrap" id="v-7480" fill="none" d="M 1529 1362 947 1667"></path><title class="tooltip"></title><g class="labels"><g class="label" id="v-7470" label-idx="0"  transform="translate(1238, 1514.5)"><rect id="v-7472" fill="#ffffff" rx="3" ry="3" stroke="#ffffff" stroke-width="20px" pointer-events="none" width="167.30563354492188" height="62.6370964050293" transform="matrix(1,0,0,1,-83.69999694824219,-31.299999237060547)"></rect><text id="v-7471" font-size="24px" y="0.8em" xml:space="preserve" text-anchor="middle" pointer-events="none" fill="#707070" font-family="Open Sans" font-weight="bold" transform="matrix(1,0,0,1,0,-24.200000762939453)"><tspan id="v-7473" class="v-line" dy="0em" x="0">authenticates</tspan><tspan id="v-7474" class="v-line" dy="1.2em" x="0">users using</tspan></text></g><g class="label" id="v-7475" label-idx="1"  transform="translate(1238, 1557.7)"><rect id="v-7477" fill="#ffffff" rx="3" ry="3" pointer-events="none" width="0" height="0" transform="matrix(1,0,0,1,0,0)"></rect><text id="v-7476" font-size="19px" y="0.8em" display="none" xml:space="preserve" text-anchor="middle" pointer-events="none" fill="#707070" font-family="Open Sans" font-weight="normal" transform="matrix(1,0,0,1,0,0)"><tspan id="v-7478" class="v-line v-empty-line" dy="0em" x="0" style="fill-opacity: 0; stroke-opacity: 0;">-</tspan></text></g></g><g class="marker-vertices" display="none"></g><g class="marker-arrowheads" id="v-7483" display="none"><g class="marker-arrowhead-group marker-arrowhead-group-source" id="v-7467"><path class="marker-arrowhead" end="source" d="M 26 0 L 0 13 L 26 26 z"></path></g><g class="marker-arrowhead-group marker-arrowhead-group-target" id="v-7468"><path class="marker-arrowhead" end="target" d="M 26 0 L 0 13 L 26 26 z"></path></g></g><g class="link-tools" id="v-7482" display="none"><g class="link-tool" id="v-7466" transform="translate(1493.5703125, 1380.567138671875) "><g class="tool-remove" event="remove"><circle r="11"></circle><path transform="scale(.8) translate(-16, -16)" d="M24.778,21.419 19.276,15.917 24.777,10.415 21.949,7.585 16.447,13.087 10.945,7.585 8.117,10.415 13.618,15.917 8.116,21.419 10.946,24.248 16.447,18.746 21.948,24.248z"></path><title>Remove link.</title></g><g class="tool-options" event="link:options"><circle r="11" transform="translate(25)"></circle><path fill="white" transform="scale(.55) translate(29, -16)" d="M31.229,17.736c0.064-0.571,0.104-1.148,0.104-1.736s-0.04-1.166-0.104-1.737l-4.377-1.557c-0.218-0.716-0.504-1.401-0.851-2.05l1.993-4.192c-0.725-0.91-1.549-1.734-2.458-2.459l-4.193,1.994c-0.647-0.347-1.334-0.632-2.049-0.849l-1.558-4.378C17.165,0.708,16.588,0.667,16,0.667s-1.166,0.041-1.737,0.105L12.707,5.15c-0.716,0.217-1.401,0.502-2.05,0.849L6.464,4.005C5.554,4.73,4.73,5.554,4.005,6.464l1.994,4.192c-0.347,0.648-0.632,1.334-0.849,2.05l-4.378,1.557C0.708,14.834,0.667,15.412,0.667,16s0.041,1.165,0.105,1.736l4.378,1.558c0.217,0.715,0.502,1.401,0.849,2.049l-1.994,4.193c0.725,0.909,1.549,1.733,2.459,2.458l4.192-1.993c0.648,0.347,1.334,0.633,2.05,0.851l1.557,4.377c0.571,0.064,1.148,0.104,1.737,0.104c0.588,0,1.165-0.04,1.736-0.104l1.558-4.377c0.715-0.218,1.399-0.504,2.049-0.851l4.193,1.993c0.909-0.725,1.733-1.549,2.458-2.458l-1.993-4.193c0.347-0.647,0.633-1.334,0.851-2.049L31.229,17.736zM16,20.871c-2.69,0-4.872-2.182-4.872-4.871c0-2.69,2.182-4.872,4.872-4.872c2.689,0,4.871,2.182,4.871,4.872C20.871,18.689,18.689,20.871,16,20.871z"></path><title>Link options.</title></g></g></g></g><g id="j_601" model-id="2d036023-5c76-4f9b-b84c-ceee47aec23f" class="joint-theme-default joint-cell joint-type-structurizr joint-type-structurizr-relationship joint-link" data-type="structurizr.relationship"><path class="connection" stroke="#707070" id="v-7500" stroke-width="2" stroke-dasharray="30 30" fill="none" d="M 1754 1394 1754 1624"></path><path class="marker-source" fill="black" stroke="black" transform="translate(1754,1394) scale(1,1) rotate(-270)"></path><path class="marker-target" fill="#707070" stroke="#707070" id="v-7502" d="M 20 0 L 0 10 L 20 20 z" transform="translate(1744,1644) scale(1,1) rotate(-90)"></path><path class="connection-wrap" id="v-7501" fill="none" d="M 1754 1394 1754 1624"></path><title class="tooltip"></title><g class="labels"><g class="label" id="v-7491" label-idx="0"  transform="translate(1754, 1509)"><rect id="v-7493" fill="#ffffff" rx="3" ry="3" stroke="#ffffff" stroke-width="20px" pointer-events="none" width="122.18951416015625" height="62.6370964050293" transform="matrix(1,0,0,1,-61.099998474121094,-31.299999237060547)"></rect><text id="v-7492" font-size="24px" y="0.8em" xml:space="preserve" text-anchor="middle" pointer-events="none" fill="#707070" font-family="Open Sans" font-weight="bold" transform="matrix(1,0,0,1,0,-24.200000762939453)"><tspan id="v-7494" class="v-line" dy="0em" x="0">starts and</tspan><tspan id="v-7495" class="v-line" dy="1.2em" x="0">controls</tspan></text></g><g class="label" id="v-7496" label-idx="1"  transform="translate(1754, 1552.2)"><rect id="v-7498" fill="#ffffff" rx="3" ry="3" pointer-events="none" width="0" height="0" transform="matrix(1,0,0,1,0,0)"></rect><text id="v-7497" font-size="19px" y="0.8em" display="none" xml:space="preserve" text-anchor="middle" pointer-events="none" fill="#707070" font-family="Open Sans" font-weight="normal" transform="matrix(1,0,0,1,0,0)"><tspan id="v-7499" class="v-line v-empty-line" dy="0em" x="0" style="fill-opacity: 0; stroke-opacity: 0;">-</tspan></text></g></g><g class="marker-vertices" display="none"></g><g class="marker-arrowheads" id="v-7504" display="none"><g class="marker-arrowhead-group marker-arrowhead-group-source" id="v-7488"><path class="marker-arrowhead" end="source" d="M 26 0 L 0 13 L 26 26 z"></path></g><g class="marker-arrowhead-group marker-arrowhead-group-target" id="v-7489"><path class="marker-arrowhead" end="target" d="M 26 0 L 0 13 L 26 26 z"></path></g></g><g class="link-tools" id="v-7503" display="none"><g class="link-tool" id="v-7487" transform="translate(1754, 1434) "><g class="tool-remove" event="remove"><circle r="11"></circle><path transform="scale(.8) translate(-16, -16)" d="M24.778,21.419 19.276,15.917 24.777,10.415 21.949,7.585 16.447,13.087 10.945,7.585 8.117,10.415 13.618,15.917 8.116,21.419 10.946,24.248 16.447,18.746 21.948,24.248z"></path><title>Remove link.</title></g><g class="tool-options" event="link:options"><circle r="11" transform="translate(25)"></circle><path fill="white" transform="scale(.55) translate(29, -16)" d="M31.229,17.736c0.064-0.571,0.104-1.148,0.104-1.736s-0.04-1.166-0.104-1.737l-4.377-1.557c-0.218-0.716-0.504-1.401-0.851-2.05l1.993-4.192c-0.725-0.91-1.549-1.734-2.458-2.459l-4.193,1.994c-0.647-0.347-1.334-0.632-2.049-0.849l-1.558-4.378C17.165,0.708,16.588,0.667,16,0.667s-1.166,0.041-1.737,0.105L12.707,5.15c-0.716,0.217-1.401,0.502-2.05,0.849L6.464,4.005C5.554,4.73,4.73,5.554,4.005,6.464l1.994,4.192c-0.347,0.648-0.632,1.334-0.849,2.05l-4.378,1.557C0.708,14.834,0.667,15.412,0.667,16s0.041,1.165,0.105,1.736l4.378,1.558c0.217,0.715,0.502,1.401,0.849,2.049l-1.994,4.193c0.725,0.909,1.549,1.733,2.459,2.458l4.192-1.993c0.648,0.347,1.334,0.633,2.05,0.851l1.557,4.377c0.571,0.064,1.148,0.104,1.737,0.104c0.588,0,1.165-0.04,1.736-0.104l1.558-4.377c0.715-0.218,1.399-0.504,2.049-0.851l4.193,1.993c0.909-0.725,1.733-1.549,2.458-2.458l-1.993-4.193c0.347-0.647,0.633-1.334,0.851-2.049L31.229,17.736zM16,20.871c-2.69,0-4.872-2.182-4.872-4.871c0-2.69,2.182-4.872,4.872-4.872c2.689,0,4.871,2.182,4.871,4.872C20.871,18.689,18.689,20.871,16,20.871z"></path><title>Link options.</title></g></g></g></g><g id="j_602" model-id="bc1dff9f-811d-4d34-8792-ee1907014924" class="joint-theme-default joint-cell joint-type-structurizr joint-type-structurizr-relationship joint-link" data-type="structurizr.relationship"><path class="connection" stroke="#707070" id="v-7521" stroke-width="2" stroke-dasharray="30 30" fill="none" d="M 1979 1362 2561 1667"></path><path class="marker-source" fill="black" stroke="black" transform="translate(1979,1362) scale(1,1) rotate(27.624572732351822)"></path><path class="marker-target" fill="#707070" stroke="#707070" id="v-7523" d="M 20 0 L 0 10 L 20 20 z" transform="translate(2574.36328125,1684.860107421875) scale(1,1) rotate(-152.37544253780422)"></path><path class="connection-wrap" id="v-7522" fill="none" d="M 1979 1362 2561 1667"></path><title class="tooltip"></title><g class="labels"><g class="label" id="v-7512" label-idx="0"  transform="translate(2270, 1514.5)"><rect id="v-7514" fill="#ffffff" rx="3" ry="3" stroke="#ffffff" stroke-width="20px" pointer-events="none" width="122.18951416015625" height="62.6370964050293" transform="matrix(1,0,0,1,-61.099998474121094,-31.299999237060547)"></rect><text id="v-7513" font-size="24px" y="0.8em" xml:space="preserve" text-anchor="middle" pointer-events="none" fill="#707070" font-family="Open Sans" font-weight="bold" transform="matrix(1,0,0,1,0,-24.200000762939453)"><tspan id="v-7515" class="v-line" dy="0em" x="0">starts and</tspan><tspan id="v-7516" class="v-line" dy="1.2em" x="0">controls</tspan></text></g><g class="label" id="v-7517" label-idx="1"  transform="translate(2270, 1557.7)"><rect id="v-7519" fill="#ffffff" rx="3" ry="3" pointer-events="none" width="0" height="0" transform="matrix(1,0,0,1,0,0)"></rect><text id="v-7518" font-size="19px" y="0.8em" display="none" xml:space="preserve" text-anchor="middle" pointer-events="none" fill="#707070" font-family="Open Sans" font-weight="normal" transform="matrix(1,0,0,1,0,0)"><tspan id="v-7520" class="v-line v-empty-line" dy="0em" x="0" style="fill-opacity: 0; stroke-opacity: 0;">-</tspan></text></g></g><g class="marker-vertices" display="none"></g><g class="marker-arrowheads" id="v-7525" display="none"><g class="marker-arrowhead-group marker-arrowhead-group-source" id="v-7509"><path class="marker-arrowhead" end="source" d="M 26 0 L 0 13 L 26 26 z"></path></g><g class="marker-arrowhead-group marker-arrowhead-group-target" id="v-7510"><path class="marker-arrowhead" end="target" d="M 26 0 L 0 13 L 26 26 z"></path></g></g><g class="link-tools" id="v-7524" display="none"><g class="link-tool" id="v-7508" transform="translate(2014.4296875, 1380.567138671875) "><g class="tool-remove" event="remove"><circle r="11"></circle><path transform="scale(.8) translate(-16, -16)" d="M24.778,21.419 19.276,15.917 24.777,10.415 21.949,7.585 16.447,13.087 10.945,7.585 8.117,10.415 13.618,15.917 8.116,21.419 10.946,24.248 16.447,18.746 21.948,24.248z"></path><title>Remove link.</title></g><g class="tool-options" event="link:options"><circle r="11" transform="translate(25)"></circle><path fill="white" transform="scale(.55) translate(29, -16)" d="M31.229,17.736c0.064-0.571,0.104-1.148,0.104-1.736s-0.04-1.166-0.104-1.737l-4.377-1.557c-0.218-0.716-0.504-1.401-0.851-2.05l1.993-4.192c-0.725-0.91-1.549-1.734-2.458-2.459l-4.193,1.994c-0.647-0.347-1.334-0.632-2.049-0.849l-1.558-4.378C17.165,0.708,16.588,0.667,16,0.667s-1.166,0.041-1.737,0.105L12.707,5.15c-0.716,0.217-1.401,0.502-2.05,0.849L6.464,4.005C5.554,4.73,4.73,5.554,4.005,6.464l1.994,4.192c-0.347,0.648-0.632,1.334-0.849,2.05l-4.378,1.557C0.708,14.834,0.667,15.412,0.667,16s0.041,1.165,0.105,1.736l4.378,1.558c0.217,0.715,0.502,1.401,0.849,2.049l-1.994,4.193c0.725,0.909,1.549,1.733,2.459,2.458l4.192-1.993c0.648,0.347,1.334,0.633,2.05,0.851l1.557,4.377c0.571,0.064,1.148,0.104,1.737,0.104c0.588,0,1.165-0.04,1.736-0.104l1.558-4.377c0.715-0.218,1.399-0.504,2.049-0.851l4.193,1.993c0.909-0.725,1.733-1.549,2.458-2.458l-1.993-4.193c0.347-0.647,0.633-1.334,0.851-2.049L31.229,17.736zM16,20.871c-2.69,0-4.872-2.182-4.872-4.871c0-2.69,2.182-4.872,4.872-4.872c2.689,0,4.871,2.182,4.871,4.872C20.871,18.689,18.689,20.871,16,20.871z"></path><title>Link options.</title></g></g></g></g></g><defs id="v-4"></defs></svg>