<svg xmlns="http://www.w3.org/2000/svg" xmlns:xlink="http://www.w3.org/1999/xlink" version="1.1" viewBox="0 0 3508 2480"><g id="v-3" class="joint-viewport" transform="matrix(1,0,0,1,0,0)"><g id="j_27" model-id="aebd4ce2-0267-4266-bd0d-3845881d09c2" class="joint-theme-default joint-cell joint-type-structurizr joint-type-structurizr-diagrammetadata joint-element" data-type="structurizr.diagramMetadata" transform="translate(20,2464)"><g id="v-371"><text class="structurizrDiagramMetadata structurizrMetadata" id="v-372" font-weight="normal" font-size="22px" text-anchor="start" fill="#777777" pointer-events="none" font-family="Open Sans"></text></g></g><g id="j_26" model-id="e8865848-015e-4400-a941-79ccb1499e11" class="joint-theme-default joint-cell joint-type-structurizr joint-type-structurizr-diagramdescription joint-element" data-type="structurizr.diagramDescription" transform="translate(20,2435)"><g id="v-367"><text class="structurizrDiagramDescription structurizrMetadata" id="v-368" font-size="22px" y="0.8em" xml:space="preserve" font-weight="normal" text-anchor="start" fill="#777777" pointer-events="none" font-family="Open Sans" transform="matrix(1,0,0,1,0,0)"><tspan id="v-369" class="v-line" dy="0em" x="0">The system context diagram for Gamezeug. | Diagram created with Structurizr</tspan></text></g></g><g id="j_25" model-id="28fe06c5-99fb-4ffb-afcc-1c5cd13ebf84" class="joint-theme-default joint-cell joint-type-structurizr joint-type-structurizr-diagramtitle joint-element" data-type="structurizr.diagramTitle" transform="translate(20,2389)"><g id="v-363"><text class="structurizrDiagramTitle structurizrMetadata" id="v-364" font-size="36px" y="0.8em" xml:space="preserve" font-weight="bold" text-anchor="start" fill="#000000" pointer-events="none" font-family="Open Sans" transform="matrix(1,0,0,1,0,0)"><tspan id="v-365" class="v-line" dy="0em" x="0">System Context diagram for Gamezeug</tspan></text></g></g><g id="j_15" model-id="4f4099d7-f8c8-4376-becb-0a0567493ea3" class="joint-theme-default joint-cell joint-type-structurizr joint-type-structurizr-box joint-element" data-type="structurizr.box" transform="translate(2065,1670)" style="cursor: move !important"><g class="structurizrElement" id="v-194"><rect class="structurizrBox structurizrHighlightableElement" id="v-195" rx="1" ry="1" stroke="#696969" stroke-width="2" pointer-events="visiblePainted" fill="#757575" width="450" height="300"></rect><text class="structurizrName" id="v-196" font-size="34" y="0.8em" xml:space="preserve" font-weight="bold" text-anchor="middle" pointer-events="visible" font-family="Open Sans" fill="#ffffff" transform="matrix(1,0,0,1,225,75)"><tspan id="v-201" class="v-line" dy="0em" x="0">Game</tspan></text><text class="structurizrMetaData" id="v-197" font-size="19" y="0.8em" xml:space="preserve" text-anchor="middle" font-family="Open Sans" fill="#ffffff" transform="matrix(1,0,0,1,225,115)"><tspan id="v-202" class="v-line" dy="0em" x="0">[Software System]</tspan></text><text class="structurizrDescription" id="v-198" font-size="24" y="0.8em" xml:space="preserve" text-anchor="middle" font-family="Open Sans" fill="#ffffff" transform="matrix(1,0,0,1,225,165)"><tspan id="v-203" class="v-line" dy="0em" x="0">An open source game which is</tspan><tspan id="v-204" class="v-line" dy="1.2em" x="0">registered in Gamezeug</tspan></text><text class="structurizrNavigation" id="v-199" font-weight="bold" text-anchor="middle" display="none" font-family="Open Sans" fill="#989898" font-size="24" transform="matrix(1,0,0,1,225,270)"></text><image class="structurizrIcon" id="v-200"></image></g></g><g id="j_16" model-id="6983def5-a874-457c-8861-5548bdd94764" class="joint-theme-default joint-cell joint-type-structurizr joint-type-structurizr-box joint-element" data-type="structurizr.box" transform="translate(2121,1711)" style="cursor: move !important"><g class="structurizrElement" id="v-208"><rect class="structurizrBox structurizrHighlightableElement" id="v-209" rx="1" ry="1" stroke="#696969" stroke-width="2" pointer-events="visiblePainted" fill="#757575" width="450" height="300"></rect><text class="structurizrName" id="v-210" font-size="34" y="0.8em" xml:space="preserve" font-weight="bold" text-anchor="middle" pointer-events="visible" font-family="Open Sans" fill="#ffffff" transform="matrix(1,0,0,1,225,75)"><tspan id="v-215" class="v-line" dy="0em" x="0">Game 2</tspan></text><text class="structurizrMetaData" id="v-211" font-size="19" y="0.8em" xml:space="preserve" text-anchor="middle" font-family="Open Sans" fill="#ffffff" transform="matrix(1,0,0,1,225,115)"><tspan id="v-216" class="v-line" dy="0em" x="0">[Software System]</tspan></text><text class="structurizrDescription" id="v-212" font-size="24" y="0.8em" xml:space="preserve" text-anchor="middle" font-family="Open Sans" fill="#ffffff" transform="matrix(1,0,0,1,225,165)"><tspan id="v-217" class="v-line" dy="0em" x="0">An open source game which is</tspan><tspan id="v-218" class="v-line" dy="1.2em" x="0">registered in Gamezeug</tspan></text><text class="structurizrNavigation" id="v-213" font-weight="bold" text-anchor="middle" display="none" font-family="Open Sans" fill="#989898" font-size="24" transform="matrix(1,0,0,1,225,270)"></text><image class="structurizrIcon" id="v-214"></image></g></g><g id="j_17" model-id="96583c71-1b22-4747-8965-ade6ab47ce52" class="joint-theme-default joint-cell joint-type-structurizr joint-type-structurizr-person joint-element" data-type="structurizr.person" transform="translate(1060,440)" style="cursor: move !important"><g class="structurizrElement" id="v-222"><rect class="structurizrPersonBody structurizrHighlightableElement" x="0" y="160" width="400" height="240" rx="70" id="v-224" stroke="#073b6f" stroke-width="2" pointer-events="visiblePainted" fill="#08427b"></rect><circle class="structurizrPersonHead structurizrHighlightableElement" cx="200" cy="88.88888888888889" r="88.88888888888889" id="v-223" stroke="#073b6f" stroke-width="2" pointer-events="visiblePainted" fill="#08427b"></circle><line class="structurizrPersonRightArm" x1="80" y1="266.6666666666667" x2="80" y2="400" style="stroke-width:2px" id="v-230" stroke="#073b6f"></line><line class="structurizrPersonLeftArm" x1="320" y1="266.6666666666667" x2="320" y2="400" style="stroke-width:2px" id="v-231" stroke="#073b6f"></line><text class="structurizrName" id="v-225" font-size="34px" y="0.8em" xml:space="preserve" font-weight="bold" text-anchor="middle" pointer-events="visible" font-family="Open Sans" fill="#ffffff" transform="matrix(1,0,0,1,200,205)"><tspan id="v-232" class="v-line" dy="0em" x="0">Game Admin</tspan></text><text class="structurizrMetaData" id="v-226" font-size="19px" y="0.8em" xml:space="preserve" text-anchor="middle" font-family="Open Sans" fill="#ffffff" transform="matrix(1,0,0,1,200,245)"><tspan id="v-233" class="v-line" dy="0em" x="0">[Person]</tspan></text><text class="structurizrDescription" id="v-227" font-size="24px" y="0.8em" xml:space="preserve" text-anchor="middle" font-family="Open Sans" fill="#ffffff" transform="matrix(1,0,0,1,200,295)"><tspan id="v-234" class="v-line" dy="0em" x="0">A person who can administer</tspan><tspan id="v-235" class="v-line" dy="1.2em" x="0">games in Gamezeug</tspan></text><text class="structurizrNavigation" id="v-228" font-weight="bold" text-anchor="middle" display="none" font-family="Open Sans" fill="#46719c" font-size="24" transform="matrix(1,0,0,1,200,371.20001220703125)"></text><image class="structurizrIcon" id="v-229"></image></g></g><g id="j_18" model-id="d3d0c0a4-6c7a-4397-95d4-7b890257b3d3" class="joint-theme-default joint-cell joint-type-structurizr joint-type-structurizr-person joint-element" data-type="structurizr.person" transform="translate(2090,440)" style="cursor: move !important"><g class="structurizrElement" id="v-239"><rect class="structurizrPersonBody structurizrHighlightableElement" x="0" y="160" width="400" height="240" rx="70" id="v-241" stroke="#073b6f" stroke-width="2" pointer-events="visiblePainted" fill="#08427b"></rect><circle class="structurizrPersonHead structurizrHighlightableElement" cx="200" cy="88.88888888888889" r="88.88888888888889" id="v-240" stroke="#073b6f" stroke-width="2" pointer-events="visiblePainted" fill="#08427b"></circle><line class="structurizrPersonRightArm" x1="80" y1="266.6666666666667" x2="80" y2="400" style="stroke-width:2px" id="v-247" stroke="#073b6f"></line><line class="structurizrPersonLeftArm" x1="320" y1="266.6666666666667" x2="320" y2="400" style="stroke-width:2px" id="v-248" stroke="#073b6f"></line><text class="structurizrName" id="v-242" font-size="34px" y="0.8em" xml:space="preserve" font-weight="bold" text-anchor="middle" pointer-events="visible" font-family="Open Sans" fill="#ffffff" transform="matrix(1,0,0,1,200,205)"><tspan id="v-249" class="v-line" dy="0em" x="0">Gamer</tspan></text><text class="structurizrMetaData" id="v-243" font-size="19px" y="0.8em" xml:space="preserve" text-anchor="middle" font-family="Open Sans" fill="#ffffff" transform="matrix(1,0,0,1,200,245)"><tspan id="v-250" class="v-line" dy="0em" x="0">[Person]</tspan></text><text class="structurizrDescription" id="v-244" font-size="24px" y="0.8em" xml:space="preserve" text-anchor="middle" font-family="Open Sans" fill="#ffffff" transform="matrix(1,0,0,1,200,295)"><tspan id="v-251" class="v-line" dy="0em" x="0">A gamer person who likes to play</tspan><tspan id="v-252" class="v-line" dy="1.2em" x="0">games</tspan></text><text class="structurizrNavigation" id="v-245" font-weight="bold" text-anchor="middle" display="none" font-family="Open Sans" fill="#46719c" font-size="24" transform="matrix(1,0,0,1,200,371.20001220703125)"></text><image class="structurizrIcon" id="v-246"></image></g></g><g id="j_19" model-id="5fdb42b4-cbf1-4917-b803-ea025b3321b1" class="joint-theme-default joint-cell joint-type-structurizr joint-type-structurizr-box joint-element" data-type="structurizr.box" transform="translate(1560,1085)" style="cursor: move !important"><g class="structurizrElement" id="v-256"><rect class="structurizrBox structurizrHighlightableElement" id="v-257" rx="1" ry="1" stroke="#0f5eaa" stroke-width="2" pointer-events="visiblePainted" fill="#1168bd" width="450" height="300"></rect><text class="structurizrName" id="v-258" font-size="34" y="0.8em" xml:space="preserve" font-weight="bold" text-anchor="middle" pointer-events="visible" font-family="Open Sans" fill="#ffffff" transform="matrix(1,0,0,1,225,75)"><tspan id="v-263" class="v-line" dy="0em" x="0">Gamezeug</tspan></text><text class="structurizrMetaData" id="v-259" font-size="19" y="0.8em" xml:space="preserve" text-anchor="middle" font-family="Open Sans" fill="#ffffff" transform="matrix(1,0,0,1,225,115)"><tspan id="v-264" class="v-line" dy="0em" x="0">[Software System]</tspan></text><text class="structurizrDescription" id="v-260" font-size="24" y="0.8em" xml:space="preserve" text-anchor="middle" font-family="Open Sans" fill="#ffffff" transform="matrix(1,0,0,1,225,165)"><tspan id="v-265" class="v-line" dy="0em" x="0">The second best open source gaming</tspan><tspan id="v-266" class="v-line" dy="1.2em" x="0">platform</tspan></text><text class="structurizrNavigation" id="v-261" font-weight="bold" text-anchor="middle" display="none" font-family="Open Sans" fill="#4d8ece" font-size="24" transform="matrix(1,0,0,1,225,270)"></text><image class="structurizrIcon" id="v-262"></image></g></g><g id="j_20" model-id="ecd441a5-152b-41fa-b48e-e64b4637d421" class="joint-theme-default joint-cell joint-type-structurizr joint-type-structurizr-box joint-element" data-type="structurizr.box" transform="translate(1010,1670)" style="cursor: move !important"><g class="structurizrElement" id="v-270"><rect class="structurizrBox structurizrHighlightableElement" id="v-271" rx="1" ry="1" stroke="#696969" stroke-width="2" pointer-events="visiblePainted" fill="#757575" width="450" height="300"></rect><text class="structurizrName" id="v-272" font-size="34" y="0.8em" xml:space="preserve" font-weight="bold" text-anchor="middle" pointer-events="visible" font-family="Open Sans" fill="#ffffff" transform="matrix(1,0,0,1,225,75)"><tspan id="v-277" class="v-line" dy="0em" x="0">GitHub</tspan></text><text class="structurizrMetaData" id="v-273" font-size="19" y="0.8em" xml:space="preserve" text-anchor="middle" font-family="Open Sans" fill="#ffffff" transform="matrix(1,0,0,1,225,115)"><tspan id="v-278" class="v-line" dy="0em" x="0">[Software System]</tspan></text><text class="structurizrDescription" id="v-274" font-size="24" y="0.8em" xml:space="preserve" text-anchor="middle" font-family="Open Sans" fill="#ffffff" transform="matrix(1,0,0,1,225,165)"><tspan id="v-279" class="v-line" dy="0em" x="0">A hosting service for version control</tspan><tspan id="v-280" class="v-line" dy="1.2em" x="0">using Git</tspan></text><text class="structurizrNavigation" id="v-275" font-weight="bold" text-anchor="middle" display="none" font-family="Open Sans" fill="#989898" font-size="24" transform="matrix(1,0,0,1,225,270)"></text><image class="structurizrIcon" id="v-276"></image></g></g><g id="j_21" model-id="46d3081e-fb4d-42a5-b461-ba081c484d5e" class="joint-theme-default joint-cell joint-type-structurizr joint-type-structurizr-relationship joint-link" data-type="structurizr.relationship"><path class="connection" stroke="#707070" id="v-299" stroke-width="2" stroke-dasharray="30 30" fill="none" d="M 2161 1670 1928 1400"></path><path class="marker-source" fill="black" stroke="black" transform="translate(2161,1670) scale(1,1) rotate(-130.79937771372565)"></path><path class="marker-target" fill="#707070" stroke="#707070" id="v-301" d="M 20 0 L 0 10 L 20 20 z" transform="translate(1922.570068359375,1378.4659423828125) scale(1,1) rotate(49.20062228627435)"></path><path class="connection-wrap" id="v-300" fill="none" d="M 2161 1670 1928 1400"></path><title class="tooltip"></title><g class="labels"><g class="label" id="v-288" label-idx="0"  transform="translate(2044.5, 1535)"><rect id="v-290" fill="#ffffff" rx="3" ry="3" stroke="#ffffff" stroke-width="20px" pointer-events="none" width="185.92501831054688" height="122.38549041748047" transform="matrix(1,0,0,1,-93,-61.20000076293945)"></rect><text id="v-289" font-size="24px" y="0.8em" xml:space="preserve" text-anchor="middle" pointer-events="none" fill="#707070" font-family="Open Sans" font-weight="bold" transform="matrix(1,0,0,1,0,-53.400001525878906)"><tspan id="v-291" class="v-line" dy="0em" x="0">publishes game</tspan><tspan id="v-292" class="v-line" dy="1.2em" x="0">event and</tspan><tspan id="v-293" class="v-line" dy="1.2em" x="0">receives table</tspan><tspan id="v-294" class="v-line" dy="1.2em" x="0">events</tspan></text></g><g class="label" id="v-295" label-idx="1"  transform="translate(2044.5, 1602.2)"><rect id="v-297" fill="#ffffff" rx="3" ry="3" pointer-events="none" width="0" height="0" transform="matrix(1,0,0,1,0,0)"></rect><text id="v-296" font-size="19px" y="0.8em" display="none" xml:space="preserve" text-anchor="middle" pointer-events="none" fill="#707070" font-family="Open Sans" font-weight="normal" transform="matrix(1,0,0,1,0,0)"><tspan id="v-298" class="v-line v-empty-line" dy="0em" x="0" style="fill-opacity: 0; stroke-opacity: 0;">-</tspan></text></g></g><g class="marker-vertices" display="none"></g><g class="marker-arrowheads" id="v-303" display="none"><g class="marker-arrowhead-group marker-arrowhead-group-source" id="v-285"><path class="marker-arrowhead" end="source" d="M 26 0 L 0 13 L 26 26 z"></path></g><g class="marker-arrowhead-group marker-arrowhead-group-target" id="v-286"><path class="marker-arrowhead" end="target" d="M 26 0 L 0 13 L 26 26 z"></path></g></g><g class="link-tools" id="v-302" display="none"><g class="link-tool" id="v-284" transform="translate(2134.866943359375, 1639.717041015625) "><g class="tool-remove" event="remove"><circle r="11"></circle><path transform="scale(.8) translate(-16, -16)" d="M24.778,21.419 19.276,15.917 24.777,10.415 21.949,7.585 16.447,13.087 10.945,7.585 8.117,10.415 13.618,15.917 8.116,21.419 10.946,24.248 16.447,18.746 21.948,24.248z"></path><title>Remove link.</title></g><g class="tool-options" event="link:options"><circle r="11" transform="translate(25)"></circle><path fill="white" transform="scale(.55) translate(29, -16)" d="M31.229,17.736c0.064-0.571,0.104-1.148,0.104-1.736s-0.04-1.166-0.104-1.737l-4.377-1.557c-0.218-0.716-0.504-1.401-0.851-2.05l1.993-4.192c-0.725-0.91-1.549-1.734-2.458-2.459l-4.193,1.994c-0.647-0.347-1.334-0.632-2.049-0.849l-1.558-4.378C17.165,0.708,16.588,0.667,16,0.667s-1.166,0.041-1.737,0.105L12.707,5.15c-0.716,0.217-1.401,0.502-2.05,0.849L6.464,4.005C5.554,4.73,4.73,5.554,4.005,6.464l1.994,4.192c-0.347,0.648-0.632,1.334-0.849,2.05l-4.378,1.557C0.708,14.834,0.667,15.412,0.667,16s0.041,1.165,0.105,1.736l4.378,1.558c0.217,0.715,0.502,1.401,0.849,2.049l-1.994,4.193c0.725,0.909,1.549,1.733,2.459,2.458l4.192-1.993c0.648,0.347,1.334,0.633,2.05,0.851l1.557,4.377c0.571,0.064,1.148,0.104,1.737,0.104c0.588,0,1.165-0.04,1.736-0.104l1.558-4.377c0.715-0.218,1.399-0.504,2.049-0.851l4.193,1.993c0.909-0.725,1.733-1.549,2.458-2.458l-1.993-4.193c0.347-0.647,0.633-1.334,0.851-2.049L31.229,17.736zM16,20.871c-2.69,0-4.872-2.182-4.872-4.871c0-2.69,2.182-4.872,4.872-4.872c2.689,0,4.871,2.182,4.871,4.872C20.871,18.689,18.689,20.871,16,20.871z"></path><title>Link options.</title></g></g></g></g><g id="j_22" model-id="45f428d8-e84e-4cc0-9c07-c0d9b8ca34cc" class="joint-theme-default joint-cell joint-type-structurizr joint-type-structurizr-relationship joint-link" data-type="structurizr.relationship"><path class="connection" stroke="#707070" id="v-317" stroke-width="2" stroke-dasharray="30 30" fill="none" d="M 1436 840 1639 1070"></path><path class="marker-source" fill="black" stroke="black" transform="translate(1436,840) scale(1,1) rotate(48.59954893553427)"></path><path class="marker-target" fill="#707070" stroke="#707070" id="v-319" d="M 20 0 L 0 10 L 20 20 z" transform="translate(1644.4989013671875,1091.6131591796875) scale(1,1) rotate(-131.40045106446573)"></path><path class="connection-wrap" id="v-318" fill="none" d="M 1436 840 1639 1070"></path><title class="tooltip"></title><g class="labels"><g class="label" id="v-309" label-idx="0"  transform="translate(1537.5, 955)"><rect id="v-311" fill="#ffffff" rx="3" ry="3" stroke="#ffffff" stroke-width="20px" pointer-events="none" width="53.978233337402344" height="35.98548889160156" transform="matrix(1,0,0,1,-27,-18)"></rect><text id="v-310" font-size="24px" y="0.8em" xml:space="preserve" text-anchor="middle" pointer-events="none" fill="#707070" font-family="Open Sans" font-weight="bold" transform="matrix(1,0,0,1,0,-10.199999809265137)"><tspan id="v-312" class="v-line" dy="0em" x="0">uses</tspan></text></g><g class="label" id="v-313" label-idx="1"  transform="translate(1537.5, 986.2)"><rect id="v-315" fill="#ffffff" rx="3" ry="3" pointer-events="none" width="0" height="0" transform="matrix(1,0,0,1,0,0)"></rect><text id="v-314" font-size="19px" y="0.8em" display="none" xml:space="preserve" text-anchor="middle" pointer-events="none" fill="#707070" font-family="Open Sans" font-weight="normal" transform="matrix(1,0,0,1,0,0)"><tspan id="v-316" class="v-line v-empty-line" dy="0em" x="0" style="fill-opacity: 0; stroke-opacity: 0;">-</tspan></text></g></g><g class="marker-vertices" display="none"></g><g class="marker-arrowheads" id="v-321" display="none"><g class="marker-arrowhead-group marker-arrowhead-group-source" id="v-306"><path class="marker-arrowhead" end="source" d="M 26 0 L 0 13 L 26 26 z"></path></g><g class="marker-arrowhead-group marker-arrowhead-group-target" id="v-307"><path class="marker-arrowhead" end="target" d="M 26 0 L 0 13 L 26 26 z"></path></g></g><g class="link-tools" id="v-320" display="none"><g class="link-tool" id="v-305" transform="translate(1462.4691162109375, 869.9896850585938) "><g class="tool-remove" event="remove"><circle r="11"></circle><path transform="scale(.8) translate(-16, -16)" d="M24.778,21.419 19.276,15.917 24.777,10.415 21.949,7.585 16.447,13.087 10.945,7.585 8.117,10.415 13.618,15.917 8.116,21.419 10.946,24.248 16.447,18.746 21.948,24.248z"></path><title>Remove link.</title></g><g class="tool-options" event="link:options"><circle r="11" transform="translate(25)"></circle><path fill="white" transform="scale(.55) translate(29, -16)" d="M31.229,17.736c0.064-0.571,0.104-1.148,0.104-1.736s-0.04-1.166-0.104-1.737l-4.377-1.557c-0.218-0.716-0.504-1.401-0.851-2.05l1.993-4.192c-0.725-0.91-1.549-1.734-2.458-2.459l-4.193,1.994c-0.647-0.347-1.334-0.632-2.049-0.849l-1.558-4.378C17.165,0.708,16.588,0.667,16,0.667s-1.166,0.041-1.737,0.105L12.707,5.15c-0.716,0.217-1.401,0.502-2.05,0.849L6.464,4.005C5.554,4.73,4.73,5.554,4.005,6.464l1.994,4.192c-0.347,0.648-0.632,1.334-0.849,2.05l-4.378,1.557C0.708,14.834,0.667,15.412,0.667,16s0.041,1.165,0.105,1.736l4.378,1.558c0.217,0.715,0.502,1.401,0.849,2.049l-1.994,4.193c0.725,0.909,1.549,1.733,2.459,2.458l4.192-1.993c0.648,0.347,1.334,0.633,2.05,0.851l1.557,4.377c0.571,0.064,1.148,0.104,1.737,0.104c0.588,0,1.165-0.04,1.736-0.104l1.558-4.377c0.715-0.218,1.399-0.504,2.049-0.851l4.193,1.993c0.909-0.725,1.733-1.549,2.458-2.458l-1.993-4.193c0.347-0.647,0.633-1.334,0.851-2.049L31.229,17.736zM16,20.871c-2.69,0-4.872-2.182-4.872-4.871c0-2.69,2.182-4.872,4.872-4.872c2.689,0,4.871,2.182,4.871,4.872C20.871,18.689,18.689,20.871,16,20.871z"></path><title>Link options.</title></g></g></g></g><g id="j_23" model-id="5ead21e0-2f8d-43a6-bbf8-c94a6dbd81df" class="joint-theme-default joint-cell joint-type-structurizr joint-type-structurizr-relationship joint-link" data-type="structurizr.relationship"><path class="connection" stroke="#707070" id="v-335" stroke-width="2" stroke-dasharray="30 30" fill="none" d="M 2120 840 1925 1070"></path><path class="marker-source" fill="black" stroke="black" transform="translate(2120,840) scale(1,1) rotate(-229.66941894423994)"></path><path class="marker-target" fill="#707070" stroke="#707070" id="v-337" d="M 20 0 L 0 10 L 20 20 z" transform="translate(1904.376708984375,1078.5279541015625) scale(1,1) rotate(-49.669421547645136)"></path><path class="connection-wrap" id="v-336" fill="none" d="M 2120 840 1925 1070"></path><title class="tooltip"></title><g class="labels"><g class="label" id="v-327" label-idx="0"  transform="translate(2022.5, 955)"><rect id="v-329" fill="#ffffff" rx="3" ry="3" stroke="#ffffff" stroke-width="20px" pointer-events="none" width="53.978233337402344" height="35.98548889160156" transform="matrix(1,0,0,1,-27,-18)"></rect><text id="v-328" font-size="24px" y="0.8em" xml:space="preserve" text-anchor="middle" pointer-events="none" fill="#707070" font-family="Open Sans" font-weight="bold" transform="matrix(1,0,0,1,0,-10.199999809265137)"><tspan id="v-330" class="v-line" dy="0em" x="0">uses</tspan></text></g><g class="label" id="v-331" label-idx="1"  transform="translate(2022.5, 986.2)"><rect id="v-333" fill="#ffffff" rx="3" ry="3" pointer-events="none" width="0" height="0" transform="matrix(1,0,0,1,0,0)"></rect><text id="v-332" font-size="19px" y="0.8em" display="none" xml:space="preserve" text-anchor="middle" pointer-events="none" fill="#707070" font-family="Open Sans" font-weight="normal" transform="matrix(1,0,0,1,0,0)"><tspan id="v-334" class="v-line v-empty-line" dy="0em" x="0" style="fill-opacity: 0; stroke-opacity: 0;">-</tspan></text></g></g><g class="marker-vertices" display="none"></g><g class="marker-arrowheads" id="v-339" display="none"><g class="marker-arrowhead-group marker-arrowhead-group-source" id="v-324"><path class="marker-arrowhead" end="source" d="M 26 0 L 0 13 L 26 26 z"></path></g><g class="marker-arrowhead-group marker-arrowhead-group-target" id="v-325"><path class="marker-arrowhead" end="target" d="M 26 0 L 0 13 L 26 26 z"></path></g></g><g class="link-tools" id="v-338" display="none"><g class="link-tool" id="v-323" transform="translate(2094.132568359375, 870.51025390625) "><g class="tool-remove" event="remove"><circle r="11"></circle><path transform="scale(.8) translate(-16, -16)" d="M24.778,21.419 19.276,15.917 24.777,10.415 21.949,7.585 16.447,13.087 10.945,7.585 8.117,10.415 13.618,15.917 8.116,21.419 10.946,24.248 16.447,18.746 21.948,24.248z"></path><title>Remove link.</title></g><g class="tool-options" event="link:options"><circle r="11" transform="translate(25)"></circle><path fill="white" transform="scale(.55) translate(29, -16)" d="M31.229,17.736c0.064-0.571,0.104-1.148,0.104-1.736s-0.04-1.166-0.104-1.737l-4.377-1.557c-0.218-0.716-0.504-1.401-0.851-2.05l1.993-4.192c-0.725-0.91-1.549-1.734-2.458-2.459l-4.193,1.994c-0.647-0.347-1.334-0.632-2.049-0.849l-1.558-4.378C17.165,0.708,16.588,0.667,16,0.667s-1.166,0.041-1.737,0.105L12.707,5.15c-0.716,0.217-1.401,0.502-2.05,0.849L6.464,4.005C5.554,4.73,4.73,5.554,4.005,6.464l1.994,4.192c-0.347,0.648-0.632,1.334-0.849,2.05l-4.378,1.557C0.708,14.834,0.667,15.412,0.667,16s0.041,1.165,0.105,1.736l4.378,1.558c0.217,0.715,0.502,1.401,0.849,2.049l-1.994,4.193c0.725,0.909,1.549,1.733,2.459,2.458l4.192-1.993c0.648,0.347,1.334,0.633,2.05,0.851l1.557,4.377c0.571,0.064,1.148,0.104,1.737,0.104c0.588,0,1.165-0.04,1.736-0.104l1.558-4.377c0.715-0.218,1.399-0.504,2.049-0.851l4.193,1.993c0.909-0.725,1.733-1.549,2.458-2.458l-1.993-4.193c0.347-0.647,0.633-1.334,0.851-2.049L31.229,17.736zM16,20.871c-2.69,0-4.872-2.182-4.872-4.871c0-2.69,2.182-4.872,4.872-4.872c2.689,0,4.871,2.182,4.871,4.872C20.871,18.689,18.689,20.871,16,20.871z"></path><title>Link options.</title></g></g></g></g><g id="j_24" model-id="042664c4-62ff-417c-9897-f37bfeb1ce62" class="joint-theme-default joint-cell joint-type-structurizr joint-type-structurizr-relationship joint-link" data-type="structurizr.relationship"><path class="connection" stroke="#707070" id="v-357" stroke-width="2" stroke-dasharray="30 30" fill="none" d="M 1644 1385 1390 1655"></path><path class="marker-source" fill="black" stroke="black" transform="translate(1644,1385) scale(1,1) rotate(-226.76080166170232)"></path><path class="marker-target" fill="#707070" stroke="#707070" id="v-359" d="M 20 0 L 0 10 L 20 20 z" transform="translate(1368.7149658203125,1663.1495361328125) scale(1,1) rotate(-46.76079917380554)"></path><path class="connection-wrap" id="v-358" fill="none" d="M 1644 1385 1390 1655"></path><title class="tooltip"></title><g class="labels"><g class="label" id="v-347" label-idx="0"  transform="translate(1517, 1520)"><rect id="v-349" fill="#ffffff" rx="3" ry="3" stroke="#ffffff" stroke-width="20px" pointer-events="none" width="161.9346923828125" height="93.58548736572266" transform="matrix(1,0,0,1,-81,-46.79999923706055)"></rect><text id="v-348" font-size="24px" y="0.8em" xml:space="preserve" text-anchor="middle" pointer-events="none" fill="#707070" font-family="Open Sans" font-weight="bold" transform="matrix(1,0,0,1,0,-39)"><tspan id="v-350" class="v-line" dy="0em" x="0">authenticates</tspan><tspan id="v-351" class="v-line" dy="1.2em" x="0">users using</tspan><tspan id="v-352" class="v-line" dy="1.2em" x="0">(optional)</tspan></text></g><g class="label" id="v-353" label-idx="1"  transform="translate(1517, 1575.2)"><rect id="v-355" fill="#ffffff" rx="3" ry="3" pointer-events="none" width="0" height="0" transform="matrix(1,0,0,1,0,0)"></rect><text id="v-354" font-size="19px" y="0.8em" display="none" xml:space="preserve" text-anchor="middle" pointer-events="none" fill="#707070" font-family="Open Sans" font-weight="normal" transform="matrix(1,0,0,1,0,0)"><tspan id="v-356" class="v-line v-empty-line" dy="0em" x="0" style="fill-opacity: 0; stroke-opacity: 0;">-</tspan></text></g></g><g class="marker-vertices" display="none"></g><g class="marker-arrowheads" id="v-361" display="none"><g class="marker-arrowhead-group marker-arrowhead-group-source" id="v-344"><path class="marker-arrowhead" end="source" d="M 26 0 L 0 13 L 26 26 z"></path></g><g class="marker-arrowhead-group marker-arrowhead-group-target" id="v-345"><path class="marker-arrowhead" end="target" d="M 26 0 L 0 13 L 26 26 z"></path></g></g><g class="link-tools" id="v-360" display="none"><g class="link-tool" id="v-343" transform="translate(1616.5921630859375, 1414.13427734375) "><g class="tool-remove" event="remove"><circle r="11"></circle><path transform="scale(.8) translate(-16, -16)" d="M24.778,21.419 19.276,15.917 24.777,10.415 21.949,7.585 16.447,13.087 10.945,7.585 8.117,10.415 13.618,15.917 8.116,21.419 10.946,24.248 16.447,18.746 21.948,24.248z"></path><title>Remove link.</title></g><g class="tool-options" event="link:options"><circle r="11" transform="translate(25)"></circle><path fill="white" transform="scale(.55) translate(29, -16)" d="M31.229,17.736c0.064-0.571,0.104-1.148,0.104-1.736s-0.04-1.166-0.104-1.737l-4.377-1.557c-0.218-0.716-0.504-1.401-0.851-2.05l1.993-4.192c-0.725-0.91-1.549-1.734-2.458-2.459l-4.193,1.994c-0.647-0.347-1.334-0.632-2.049-0.849l-1.558-4.378C17.165,0.708,16.588,0.667,16,0.667s-1.166,0.041-1.737,0.105L12.707,5.15c-0.716,0.217-1.401,0.502-2.05,0.849L6.464,4.005C5.554,4.73,4.73,5.554,4.005,6.464l1.994,4.192c-0.347,0.648-0.632,1.334-0.849,2.05l-4.378,1.557C0.708,14.834,0.667,15.412,0.667,16s0.041,1.165,0.105,1.736l4.378,1.558c0.217,0.715,0.502,1.401,0.849,2.049l-1.994,4.193c0.725,0.909,1.549,1.733,2.459,2.458l4.192-1.993c0.648,0.347,1.334,0.633,2.05,0.851l1.557,4.377c0.571,0.064,1.148,0.104,1.737,0.104c0.588,0,1.165-0.04,1.736-0.104l1.558-4.377c0.715-0.218,1.399-0.504,2.049-0.851l4.193,1.993c0.909-0.725,1.733-1.549,2.458-2.458l-1.993-4.193c0.347-0.647,0.633-1.334,0.851-2.049L31.229,17.736zM16,20.871c-2.69,0-4.872-2.182-4.872-4.871c0-2.69,2.182-4.872,4.872-4.872c2.689,0,4.871,2.182,4.871,4.872C20.871,18.689,18.689,20.871,16,20.871z"></path><title>Link options.</title></g></g></g></g></g><defs id="v-4"></defs></svg>