<svg xmlns="http://www.w3.org/2000/svg" xmlns:xlink="http://www.w3.org/1999/xlink" version="1.1" viewBox="0 0 2480 1748"><g id="v-3" class="joint-viewport" transform="matrix(1,0,0,1,0,0)"><g id="j_349" model-id="7cfce3a5-e126-4a00-8d98-97604c0f4231" class="joint-theme-default joint-cell joint-type-structurizr joint-type-structurizr-diagrammetadata joint-element" data-type="structurizr.diagramMetadata" transform="translate(20,1732)"><g id="v-3802"><text class="structurizrDiagramMetadata structurizrMetadata" id="v-3803" font-weight="normal" font-size="22px" text-anchor="start" fill="#777777" pointer-events="none" font-family="Open Sans"></text></g></g><g id="j_348" model-id="549e689a-a7ca-47de-9ca0-2d3135a02d48" class="joint-theme-default joint-cell joint-type-structurizr joint-type-structurizr-diagramdescription joint-element" data-type="structurizr.diagramDescription" transform="translate(20,1703)"><g id="v-3798"><text class="structurizrDiagramDescription structurizrMetadata" id="v-3799" font-size="22px" y="0.8em" xml:space="preserve" font-weight="normal" text-anchor="start" fill="#777777" pointer-events="none" font-family="Open Sans" transform="matrix(1,0,0,1,0,0)"><tspan id="v-3800" class="v-line" dy="0em" x="0">The system context diagram for Gamezeug. | Diagram created with Structurizr</tspan></text></g></g><g id="j_347" model-id="b785ab0c-16a2-4dcd-bbac-e9be084331c4" class="joint-theme-default joint-cell joint-type-structurizr joint-type-structurizr-diagramtitle joint-element" data-type="structurizr.diagramTitle" transform="translate(20,1657)"><g id="v-3794"><text class="structurizrDiagramTitle structurizrMetadata" id="v-3795" font-size="36px" y="0.8em" xml:space="preserve" font-weight="bold" text-anchor="start" fill="#000000" pointer-events="none" font-family="Open Sans" transform="matrix(1,0,0,1,0,0)"><tspan id="v-3796" class="v-line" dy="0em" x="0">System Context diagram for Gamezeug</tspan></text></g></g><g id="j_341" model-id="14f973e3-3cd2-452f-bec0-f92c8f5b4406" class="joint-theme-default joint-cell joint-type-structurizr joint-type-structurizr-person joint-element" data-type="structurizr.person" transform="translate(1040,78)" style="cursor: move !important"><g class="structurizrElement" id="v-3705"><rect class="structurizrPersonBody structurizrHighlightableElement" x="0" y="160" width="400" height="240" rx="70" id="v-3707" stroke="#073b6f" stroke-width="2" pointer-events="visiblePainted" fill="#08427b"></rect><circle class="structurizrPersonHead structurizrHighlightableElement" cx="200" cy="88.88888888888889" r="88.88888888888889" id="v-3706" stroke="#073b6f" stroke-width="2" pointer-events="visiblePainted" fill="#08427b"></circle><line class="structurizrPersonRightArm" x1="80" y1="266.6666666666667" x2="80" y2="400" style="stroke-width:2px" id="v-3713" stroke="#073b6f"></line><line class="structurizrPersonLeftArm" x1="320" y1="266.6666666666667" x2="320" y2="400" style="stroke-width:2px" id="v-3714" stroke="#073b6f"></line><text class="structurizrName" id="v-3708" font-size="34px" y="0.8em" xml:space="preserve" font-weight="bold" text-anchor="middle" pointer-events="visible" font-family="Open Sans" fill="#ffffff" transform="matrix(1,0,0,1,200,205)"><tspan id="v-3715" class="v-line" dy="0em" x="0">Gamer</tspan></text><text class="structurizrMetaData" id="v-3709" font-size="19px" y="0.8em" xml:space="preserve" text-anchor="middle" font-family="Open Sans" fill="#ffffff" transform="matrix(1,0,0,1,200,245)"><tspan id="v-3716" class="v-line" dy="0em" x="0">[Person]</tspan></text><text class="structurizrDescription" id="v-3710" font-size="24px" y="0.8em" xml:space="preserve" text-anchor="middle" font-family="Open Sans" fill="#ffffff" transform="matrix(1,0,0,1,200,295)"><tspan id="v-3717" class="v-line" dy="0em" x="0">A gamer person who likes to play</tspan><tspan id="v-3718" class="v-line" dy="1.2em" x="0">games</tspan></text><text class="structurizrNavigation" id="v-3711" font-weight="bold" text-anchor="middle" display="none" font-family="Open Sans" fill="#46719c" font-size="24" transform="matrix(1,0,0,1,200,371.20001220703125)"></text><image class="structurizrIcon" id="v-3712"></image></g></g><g id="j_342" model-id="82a011e2-56de-458a-ad23-05c9ba49034a" class="joint-theme-default joint-cell joint-type-structurizr joint-type-structurizr-box joint-element" data-type="structurizr.box" transform="translate(1015,728)" style="cursor: move !important"><g class="structurizrElement" id="v-3722"><rect class="structurizrBox structurizrHighlightableElement" id="v-3723" rx="1" ry="1" stroke="#0f5eaa" stroke-width="2" pointer-events="visiblePainted" fill="#1168bd" width="450" height="300"></rect><text class="structurizrName" id="v-3724" font-size="34" y="0.8em" xml:space="preserve" font-weight="bold" text-anchor="middle" pointer-events="visible" font-family="Open Sans" fill="#ffffff" transform="matrix(1,0,0,1,225,75)"><tspan id="v-3729" class="v-line" dy="0em" x="0">Gamezeug</tspan></text><text class="structurizrMetaData" id="v-3725" font-size="19" y="0.8em" xml:space="preserve" text-anchor="middle" font-family="Open Sans" fill="#ffffff" transform="matrix(1,0,0,1,225,115)"><tspan id="v-3730" class="v-line" dy="0em" x="0">[Software System]</tspan></text><text class="structurizrDescription" id="v-3726" font-size="24" y="0.8em" xml:space="preserve" text-anchor="middle" font-family="Open Sans" fill="#ffffff" transform="matrix(1,0,0,1,225,165)"><tspan id="v-3731" class="v-line" dy="0em" x="0">The second best open source gaming</tspan><tspan id="v-3732" class="v-line" dy="1.2em" x="0">platform</tspan></text><text class="structurizrNavigation" id="v-3727" font-weight="bold" text-anchor="middle" display="none" font-family="Open Sans" fill="#4d8ece" font-size="24" transform="matrix(1,0,0,1,225,270)"></text><image class="structurizrIcon" id="v-3728"></image></g></g><g id="j_343" model-id="d75782ed-cf1a-4558-9464-5859fff456b9" class="joint-theme-default joint-cell joint-type-structurizr joint-type-structurizr-box joint-element" data-type="structurizr.box" transform="translate(1015,1278)" style="cursor: move !important"><g class="structurizrElement" id="v-3736"><rect class="structurizrBox structurizrHighlightableElement" id="v-3737" rx="1" ry="1" stroke="#696969" stroke-width="2" pointer-events="visiblePainted" fill="#757575" width="450" height="300"></rect><text class="structurizrName" id="v-3738" font-size="34" y="0.8em" xml:space="preserve" font-weight="bold" text-anchor="middle" pointer-events="visible" font-family="Open Sans" fill="#ffffff" transform="matrix(1,0,0,1,225,75)"><tspan id="v-3743" class="v-line" dy="0em" x="0">GitHub</tspan></text><text class="structurizrMetaData" id="v-3739" font-size="19" y="0.8em" xml:space="preserve" text-anchor="middle" font-family="Open Sans" fill="#ffffff" transform="matrix(1,0,0,1,225,115)"><tspan id="v-3744" class="v-line" dy="0em" x="0">[Software System]</tspan></text><text class="structurizrDescription" id="v-3740" font-size="24" y="0.8em" xml:space="preserve" text-anchor="middle" font-family="Open Sans" fill="#ffffff" transform="matrix(1,0,0,1,225,165)"><tspan id="v-3745" class="v-line" dy="0em" x="0">A hosting service for version control</tspan><tspan id="v-3746" class="v-line" dy="1.2em" x="0">using Git</tspan></text><text class="structurizrNavigation" id="v-3741" font-weight="bold" text-anchor="middle" display="none" font-family="Open Sans" fill="#989898" font-size="24" transform="matrix(1,0,0,1,225,270)"></text><image class="structurizrIcon" id="v-3742"></image></g></g><g id="j_344" model-id="a7a14b58-029a-4354-b599-f4121f9282c2" class="joint-theme-default joint-cell joint-type-structurizr joint-type-structurizr-relationship joint-link" data-type="structurizr.relationship"><path class="connection" stroke="#707070" id="v-3760" stroke-width="2" stroke-dasharray="30 30" fill="none" d="M 1240 478 1240 708"></path><path class="marker-source" fill="black" stroke="black" transform="translate(1240,478) scale(1,1) rotate(-270)"></path><path class="marker-target" fill="#707070" stroke="#707070" id="v-3762" d="M 20 0 L 0 10 L 20 20 z" transform="translate(1230,728) scale(1,1) rotate(-90)"></path><path class="connection-wrap" id="v-3761" fill="none" d="M 1240 478 1240 708"></path><title class="tooltip"></title><g class="labels"><g class="label" id="v-3752" label-idx="0"  transform="translate(1240, 593)"><rect id="v-3754" fill="#ffffff" rx="3" ry="3" stroke="#ffffff" stroke-width="20px" pointer-events="none" width="54.95183181762695" height="33.44894027709961" transform="matrix(1,0,0,1,-27.5,-16.700000762939453)"></rect><text id="v-3753" font-size="24px" y="0.8em" xml:space="preserve" text-anchor="middle" pointer-events="none" fill="#707070" font-family="Open Sans" font-weight="bold" transform="matrix(1,0,0,1,0,-9.600000381469727)"><tspan id="v-3755" class="v-line" dy="0em" x="0">uses</tspan></text></g><g class="label" id="v-3756" label-idx="1"  transform="translate(1240, 624.2)"><rect id="v-3758" fill="#ffffff" rx="3" ry="3" pointer-events="none" width="0" height="0" transform="matrix(1,0,0,1,0,0)"></rect><text id="v-3757" font-size="19px" y="0.8em" display="none" xml:space="preserve" text-anchor="middle" pointer-events="none" fill="#707070" font-family="Open Sans" font-weight="normal" transform="matrix(1,0,0,1,0,0)"><tspan id="v-3759" class="v-line v-empty-line" dy="0em" x="0" style="fill-opacity: 0; stroke-opacity: 0;">-</tspan></text></g></g><g class="marker-vertices" display="none"></g><g class="marker-arrowheads" id="v-3764" display="none"><g class="marker-arrowhead-group marker-arrowhead-group-source" id="v-3749"><path class="marker-arrowhead" end="source" d="M 26 0 L 0 13 L 26 26 z"></path></g><g class="marker-arrowhead-group marker-arrowhead-group-target" id="v-3750"><path class="marker-arrowhead" end="target" d="M 26 0 L 0 13 L 26 26 z"></path></g></g><g class="link-tools" id="v-3763" display="none"><g class="link-tool" id="v-3748" transform="translate(1240, 518) "><g class="tool-remove" event="remove"><circle r="11"></circle><path transform="scale(.8) translate(-16, -16)" d="M24.778,21.419 19.276,15.917 24.777,10.415 21.949,7.585 16.447,13.087 10.945,7.585 8.117,10.415 13.618,15.917 8.116,21.419 10.946,24.248 16.447,18.746 21.948,24.248z"></path><title>Remove link.</title></g><g class="tool-options" event="link:options"><circle r="11" transform="translate(25)"></circle><path fill="white" transform="scale(.55) translate(29, -16)" d="M31.229,17.736c0.064-0.571,0.104-1.148,0.104-1.736s-0.04-1.166-0.104-1.737l-4.377-1.557c-0.218-0.716-0.504-1.401-0.851-2.05l1.993-4.192c-0.725-0.91-1.549-1.734-2.458-2.459l-4.193,1.994c-0.647-0.347-1.334-0.632-2.049-0.849l-1.558-4.378C17.165,0.708,16.588,0.667,16,0.667s-1.166,0.041-1.737,0.105L12.707,5.15c-0.716,0.217-1.401,0.502-2.05,0.849L6.464,4.005C5.554,4.73,4.73,5.554,4.005,6.464l1.994,4.192c-0.347,0.648-0.632,1.334-0.849,2.05l-4.378,1.557C0.708,14.834,0.667,15.412,0.667,16s0.041,1.165,0.105,1.736l4.378,1.558c0.217,0.715,0.502,1.401,0.849,2.049l-1.994,4.193c0.725,0.909,1.549,1.733,2.459,2.458l4.192-1.993c0.648,0.347,1.334,0.633,2.05,0.851l1.557,4.377c0.571,0.064,1.148,0.104,1.737,0.104c0.588,0,1.165-0.04,1.736-0.104l1.558-4.377c0.715-0.218,1.399-0.504,2.049-0.851l4.193,1.993c0.909-0.725,1.733-1.549,2.458-2.458l-1.993-4.193c0.347-0.647,0.633-1.334,0.851-2.049L31.229,17.736zM16,20.871c-2.69,0-4.872-2.182-4.872-4.871c0-2.69,2.182-4.872,4.872-4.872c2.689,0,4.871,2.182,4.871,4.872C20.871,18.689,18.689,20.871,16,20.871z"></path><title>Link options.</title></g></g></g></g><g id="j_345" model-id="90db6da6-6626-4101-b57e-0247bdd242f2" class="joint-theme-default joint-cell joint-type-structurizr joint-type-structurizr-relationship joint-link" data-type="structurizr.relationship"><path class="connection" stroke="#707070" id="v-3781" stroke-width="2" stroke-dasharray="30 30" fill="none" d="M 1240 1028 1240 1258"></path><path class="marker-source" fill="black" stroke="black" transform="translate(1240,1028) scale(1,1) rotate(-270)"></path><path class="marker-target" fill="#707070" stroke="#707070" id="v-3783" d="M 20 0 L 0 10 L 20 20 z" transform="translate(1230,1278) scale(1,1) rotate(-90)"></path><path class="connection-wrap" id="v-3782" fill="none" d="M 1240 1028 1240 1258"></path><title class="tooltip"></title><g class="labels"><g class="label" id="v-3772" label-idx="0"  transform="translate(1240, 1143)"><rect id="v-3774" fill="#ffffff" rx="3" ry="3" stroke="#ffffff" stroke-width="20px" pointer-events="none" width="167.2447052001953" height="62.24894332885742" transform="matrix(1,0,0,1,-83.5999984741211,-31.100000381469727)"></rect><text id="v-3773" font-size="24px" y="0.8em" xml:space="preserve" text-anchor="middle" pointer-events="none" fill="#707070" font-family="Open Sans" font-weight="bold" transform="matrix(1,0,0,1,0,-24)"><tspan id="v-3775" class="v-line" dy="0em" x="0">authenticates</tspan><tspan id="v-3776" class="v-line" dy="1.2em" x="0">user using</tspan></text></g><g class="label" id="v-3777" label-idx="1"  transform="translate(1240, 1186.2)"><rect id="v-3779" fill="#ffffff" rx="3" ry="3" pointer-events="none" width="0" height="0" transform="matrix(1,0,0,1,0,0)"></rect><text id="v-3778" font-size="19px" y="0.8em" display="none" xml:space="preserve" text-anchor="middle" pointer-events="none" fill="#707070" font-family="Open Sans" font-weight="normal" transform="matrix(1,0,0,1,0,0)"><tspan id="v-3780" class="v-line v-empty-line" dy="0em" x="0" style="fill-opacity: 0; stroke-opacity: 0;">-</tspan></text></g></g><g class="marker-vertices" display="none"></g><g class="marker-arrowheads" id="v-3785" display="none"><g class="marker-arrowhead-group marker-arrowhead-group-source" id="v-3769"><path class="marker-arrowhead" end="source" d="M 26 0 L 0 13 L 26 26 z"></path></g><g class="marker-arrowhead-group marker-arrowhead-group-target" id="v-3770"><path class="marker-arrowhead" end="target" d="M 26 0 L 0 13 L 26 26 z"></path></g></g><g class="link-tools" id="v-3784" display="none"><g class="link-tool" id="v-3768" transform="translate(1240, 1068) "><g class="tool-remove" event="remove"><circle r="11"></circle><path transform="scale(.8) translate(-16, -16)" d="M24.778,21.419 19.276,15.917 24.777,10.415 21.949,7.585 16.447,13.087 10.945,7.585 8.117,10.415 13.618,15.917 8.116,21.419 10.946,24.248 16.447,18.746 21.948,24.248z"></path><title>Remove link.</title></g><g class="tool-options" event="link:options"><circle r="11" transform="translate(25)"></circle><path fill="white" transform="scale(.55) translate(29, -16)" d="M31.229,17.736c0.064-0.571,0.104-1.148,0.104-1.736s-0.04-1.166-0.104-1.737l-4.377-1.557c-0.218-0.716-0.504-1.401-0.851-2.05l1.993-4.192c-0.725-0.91-1.549-1.734-2.458-2.459l-4.193,1.994c-0.647-0.347-1.334-0.632-2.049-0.849l-1.558-4.378C17.165,0.708,16.588,0.667,16,0.667s-1.166,0.041-1.737,0.105L12.707,5.15c-0.716,0.217-1.401,0.502-2.05,0.849L6.464,4.005C5.554,4.73,4.73,5.554,4.005,6.464l1.994,4.192c-0.347,0.648-0.632,1.334-0.849,2.05l-4.378,1.557C0.708,14.834,0.667,15.412,0.667,16s0.041,1.165,0.105,1.736l4.378,1.558c0.217,0.715,0.502,1.401,0.849,2.049l-1.994,4.193c0.725,0.909,1.549,1.733,2.459,2.458l4.192-1.993c0.648,0.347,1.334,0.633,2.05,0.851l1.557,4.377c0.571,0.064,1.148,0.104,1.737,0.104c0.588,0,1.165-0.04,1.736-0.104l1.558-4.377c0.715-0.218,1.399-0.504,2.049-0.851l4.193,1.993c0.909-0.725,1.733-1.549,2.458-2.458l-1.993-4.193c0.347-0.647,0.633-1.334,0.851-2.049L31.229,17.736zM16,20.871c-2.69,0-4.872-2.182-4.872-4.871c0-2.69,2.182-4.872,4.872-4.872c2.689,0,4.871,2.182,4.871,4.872C20.871,18.689,18.689,20.871,16,20.871z"></path><title>Link options.</title></g></g></g></g><g id="j_346" model-id="361d8863-22cf-46ae-9e27-ae21f06c52f8" class="joint-theme-default joint-cell joint-type-structurizr joint-type-structurizr-diagramwatermark joint-element" data-type="structurizr.diagramWatermark" transform="translate(1239.5,951)"><g id="v-3789"><text class="structurizrDiagramWatermark" id="v-3790" y="0.8em" xml:space="preserve" font-family="Open Sans" font-weight="bolder" text-anchor="middle" pointer-events="none" fill="#777777" stroke="#777777" stroke-width="2px" opacity="0.015" transform="matrix(1,0,0,1,0,0)" font-size="413.3333333333333px"><tspan id="v-3792" class="v-line" dy="0em" x="0">Structurizr</tspan></text></g></g></g><defs id="v-4"></defs></svg>
