<svg xmlns="http://www.w3.org/2000/svg" xmlns:xlink="http://www.w3.org/1999/xlink" version="1.1" viewBox="0 0 3508 2480"><g id="v-3" class="joint-viewport" transform="matrix(1,0,0,1,0,0)"><g id="j_1865" model-id="2bac6787-4f75-40db-aaaf-4c360846be1f" class="joint-theme-default joint-cell joint-type-structurizr joint-type-structurizr-diagrammetadata joint-element" data-type="structurizr.diagramMetadata" transform="translate(20,2464)"><g id="v-29156"><text class="structurizrDiagramMetadata structurizrMetadata" id="v-29157" font-weight="normal" font-size="22px" text-anchor="start" fill="#777777" pointer-events="none" font-family="Open Sans"></text></g></g><g id="j_1864" model-id="47ba6df5-822b-4557-a4d0-32d4a99517f7" class="joint-theme-default joint-cell joint-type-structurizr joint-type-structurizr-diagramdescription joint-element" data-type="structurizr.diagramDescription" transform="translate(20,2435)"><g id="v-29152"><text class="structurizrDiagramDescription structurizrMetadata" id="v-29153" font-size="22px" y="0.8em" xml:space="preserve" font-weight="normal" text-anchor="start" fill="#777777" pointer-events="none" font-family="Open Sans" transform="matrix(1,0,0,1,0,0)"><tspan id="v-29154" class="v-line" dy="0em" x="0">The system context diagram for Gamezeug. | Diagram created with Structurizr</tspan></text></g></g><g id="j_1863" model-id="ee9d2e4f-a341-43b6-bff1-4f919b7e4b14" class="joint-theme-default joint-cell joint-type-structurizr joint-type-structurizr-diagramtitle joint-element" data-type="structurizr.diagramTitle" transform="translate(20,2389)"><g id="v-29148"><text class="structurizrDiagramTitle structurizrMetadata" id="v-29149" font-size="36px" y="0.8em" xml:space="preserve" font-weight="bold" text-anchor="start" fill="#000000" pointer-events="none" font-family="Open Sans" transform="matrix(1,0,0,1,0,0)"><tspan id="v-29150" class="v-line" dy="0em" x="0">System Context diagram for Gamezeug</tspan></text></g></g><g id="j_1853" model-id="a206c47c-bdcc-4d62-b245-a82d7b5c6b28" class="joint-theme-default joint-cell joint-type-structurizr joint-type-structurizr-box joint-element" data-type="structurizr.box" transform="translate(2065,1670)" style="cursor: move !important"><g class="structurizrElement" id="v-28980"><rect class="structurizrBox structurizrHighlightableElement" id="v-28981" rx="1" ry="1" stroke="#696969" stroke-width="2" pointer-events="visiblePainted" fill="#757575" width="450" height="300"></rect><text class="structurizrName" id="v-28982" font-size="34" y="0.8em" xml:space="preserve" font-weight="bold" text-anchor="middle" pointer-events="visible" font-family="Open Sans" fill="#ffffff" transform="matrix(1,0,0,1,225,75)"><tspan id="v-28987" class="v-line" dy="0em" x="0">Game</tspan></text><text class="structurizrMetaData" id="v-28983" font-size="19" y="0.8em" xml:space="preserve" text-anchor="middle" font-family="Open Sans" fill="#ffffff" transform="matrix(1,0,0,1,225,115)"><tspan id="v-28988" class="v-line" dy="0em" x="0">[Software System]</tspan></text><text class="structurizrDescription" id="v-28984" font-size="24" y="0.8em" xml:space="preserve" text-anchor="middle" font-family="Open Sans" fill="#ffffff" transform="matrix(1,0,0,1,225,165)"><tspan id="v-28989" class="v-line" dy="0em" x="0">An open source game which is</tspan><tspan id="v-28990" class="v-line" dy="1.2em" x="0">registered in Gamezeug</tspan></text><text class="structurizrNavigation" id="v-28985" font-weight="bold" text-anchor="middle" display="none" font-family="Open Sans" fill="#989898" font-size="24" transform="matrix(1,0,0,1,225,270)"></text><image class="structurizrIcon" id="v-28986"></image></g></g><g id="j_1854" model-id="2004fbea-cd39-4170-a2f4-003eb3f9c65f" class="joint-theme-default joint-cell joint-type-structurizr joint-type-structurizr-box joint-element" data-type="structurizr.box" transform="translate(2121,1711)" style="cursor: move !important"><g class="structurizrElement" id="v-28994"><rect class="structurizrBox structurizrHighlightableElement" id="v-28995" rx="1" ry="1" stroke="#696969" stroke-width="2" pointer-events="visiblePainted" fill="#757575" width="450" height="300"></rect><text class="structurizrName" id="v-28996" font-size="34" y="0.8em" xml:space="preserve" font-weight="bold" text-anchor="middle" pointer-events="visible" font-family="Open Sans" fill="#ffffff" transform="matrix(1,0,0,1,225,75)"><tspan id="v-29001" class="v-line" dy="0em" x="0">Game 2</tspan></text><text class="structurizrMetaData" id="v-28997" font-size="19" y="0.8em" xml:space="preserve" text-anchor="middle" font-family="Open Sans" fill="#ffffff" transform="matrix(1,0,0,1,225,115)"><tspan id="v-29002" class="v-line" dy="0em" x="0">[Software System]</tspan></text><text class="structurizrDescription" id="v-28998" font-size="24" y="0.8em" xml:space="preserve" text-anchor="middle" font-family="Open Sans" fill="#ffffff" transform="matrix(1,0,0,1,225,165)"><tspan id="v-29003" class="v-line" dy="0em" x="0">An open source game which is</tspan><tspan id="v-29004" class="v-line" dy="1.2em" x="0">registered in Gamezeug</tspan></text><text class="structurizrNavigation" id="v-28999" font-weight="bold" text-anchor="middle" display="none" font-family="Open Sans" fill="#989898" font-size="24" transform="matrix(1,0,0,1,225,270)"></text><image class="structurizrIcon" id="v-29000"></image></g></g><g id="j_1855" model-id="0437cda7-5ee8-4918-a41a-371f181075df" class="joint-theme-default joint-cell joint-type-structurizr joint-type-structurizr-person joint-element" data-type="structurizr.person" transform="translate(1060,440)" style="cursor: move !important"><g class="structurizrElement" id="v-29008"><rect class="structurizrPersonBody structurizrHighlightableElement" x="0" y="160" width="400" height="240" rx="70" id="v-29010" stroke="#073b6f" stroke-width="2" pointer-events="visiblePainted" fill="#08427b"></rect><circle class="structurizrPersonHead structurizrHighlightableElement" cx="200" cy="88.88888888888889" r="88.88888888888889" id="v-29009" stroke="#073b6f" stroke-width="2" pointer-events="visiblePainted" fill="#08427b"></circle><line class="structurizrPersonRightArm" x1="80" y1="266.6666666666667" x2="80" y2="400" style="stroke-width:2px" id="v-29016" stroke="#073b6f"></line><line class="structurizrPersonLeftArm" x1="320" y1="266.6666666666667" x2="320" y2="400" style="stroke-width:2px" id="v-29017" stroke="#073b6f"></line><text class="structurizrName" id="v-29011" font-size="34px" y="0.8em" xml:space="preserve" font-weight="bold" text-anchor="middle" pointer-events="visible" font-family="Open Sans" fill="#ffffff" transform="matrix(1,0,0,1,200,205)"><tspan id="v-29018" class="v-line" dy="0em" x="0">Game Admin</tspan></text><text class="structurizrMetaData" id="v-29012" font-size="19px" y="0.8em" xml:space="preserve" text-anchor="middle" font-family="Open Sans" fill="#ffffff" transform="matrix(1,0,0,1,200,245)"><tspan id="v-29019" class="v-line" dy="0em" x="0">[Person]</tspan></text><text class="structurizrDescription" id="v-29013" font-size="24px" y="0.8em" xml:space="preserve" text-anchor="middle" font-family="Open Sans" fill="#ffffff" transform="matrix(1,0,0,1,200,295)"><tspan id="v-29020" class="v-line" dy="0em" x="0">A person who can administer</tspan><tspan id="v-29021" class="v-line" dy="1.2em" x="0">games in Gamezeug</tspan></text><text class="structurizrNavigation" id="v-29014" font-weight="bold" text-anchor="middle" display="none" font-family="Open Sans" fill="#46719c" font-size="24" transform="matrix(1,0,0,1,200,371.20001220703125)"></text><image class="structurizrIcon" id="v-29015"></image></g></g><g id="j_1856" model-id="ca0d905e-d209-4d02-b4f0-3c5b504866fd" class="joint-theme-default joint-cell joint-type-structurizr joint-type-structurizr-person joint-element" data-type="structurizr.person" transform="translate(2090,440)" style="cursor: move !important"><g class="structurizrElement" id="v-29025"><rect class="structurizrPersonBody structurizrHighlightableElement" x="0" y="160" width="400" height="240" rx="70" id="v-29027" stroke="#073b6f" stroke-width="2" pointer-events="visiblePainted" fill="#08427b"></rect><circle class="structurizrPersonHead structurizrHighlightableElement" cx="200" cy="88.88888888888889" r="88.88888888888889" id="v-29026" stroke="#073b6f" stroke-width="2" pointer-events="visiblePainted" fill="#08427b"></circle><line class="structurizrPersonRightArm" x1="80" y1="266.6666666666667" x2="80" y2="400" style="stroke-width:2px" id="v-29033" stroke="#073b6f"></line><line class="structurizrPersonLeftArm" x1="320" y1="266.6666666666667" x2="320" y2="400" style="stroke-width:2px" id="v-29034" stroke="#073b6f"></line><text class="structurizrName" id="v-29028" font-size="34px" y="0.8em" xml:space="preserve" font-weight="bold" text-anchor="middle" pointer-events="visible" font-family="Open Sans" fill="#ffffff" transform="matrix(1,0,0,1,200,205)"><tspan id="v-29035" class="v-line" dy="0em" x="0">Gamer</tspan></text><text class="structurizrMetaData" id="v-29029" font-size="19px" y="0.8em" xml:space="preserve" text-anchor="middle" font-family="Open Sans" fill="#ffffff" transform="matrix(1,0,0,1,200,245)"><tspan id="v-29036" class="v-line" dy="0em" x="0">[Person]</tspan></text><text class="structurizrDescription" id="v-29030" font-size="24px" y="0.8em" xml:space="preserve" text-anchor="middle" font-family="Open Sans" fill="#ffffff" transform="matrix(1,0,0,1,200,295)"><tspan id="v-29037" class="v-line" dy="0em" x="0">A gamer person who likes to play</tspan><tspan id="v-29038" class="v-line" dy="1.2em" x="0">games</tspan></text><text class="structurizrNavigation" id="v-29031" font-weight="bold" text-anchor="middle" display="none" font-family="Open Sans" fill="#46719c" font-size="24" transform="matrix(1,0,0,1,200,371.20001220703125)"></text><image class="structurizrIcon" id="v-29032"></image></g></g><g id="j_1857" model-id="64634d5b-4e68-4171-9f0f-9df3091dcc4f" class="joint-theme-default joint-cell joint-type-structurizr joint-type-structurizr-box joint-element" data-type="structurizr.box" transform="translate(1560,1085)" style="cursor: move !important"><g class="structurizrElement" id="v-29042"><rect class="structurizrBox structurizrHighlightableElement" id="v-29043" rx="1" ry="1" stroke="#0f5eaa" stroke-width="2" pointer-events="visiblePainted" fill="#1168bd" width="450" height="300"></rect><text class="structurizrName" id="v-29044" font-size="34" y="0.8em" xml:space="preserve" font-weight="bold" text-anchor="middle" pointer-events="visible" font-family="Open Sans" fill="#ffffff" transform="matrix(1,0,0,1,225,75)"><tspan id="v-29049" class="v-line" dy="0em" x="0">Gamezeug</tspan></text><text class="structurizrMetaData" id="v-29045" font-size="19" y="0.8em" xml:space="preserve" text-anchor="middle" font-family="Open Sans" fill="#ffffff" transform="matrix(1,0,0,1,225,115)"><tspan id="v-29050" class="v-line" dy="0em" x="0">[Software System]</tspan></text><text class="structurizrDescription" id="v-29046" font-size="24" y="0.8em" xml:space="preserve" text-anchor="middle" font-family="Open Sans" fill="#ffffff" transform="matrix(1,0,0,1,225,165)"><tspan id="v-29051" class="v-line" dy="0em" x="0">The second best open source gaming</tspan><tspan id="v-29052" class="v-line" dy="1.2em" x="0">platform</tspan></text><text class="structurizrNavigation" id="v-29047" font-weight="bold" text-anchor="middle" display="none" font-family="Open Sans" fill="#4d8ece" font-size="24" transform="matrix(1,0,0,1,225,270)"></text><image class="structurizrIcon" id="v-29048"></image></g></g><g id="j_1858" model-id="29d3147f-bba3-4e3e-a4f9-c31ad469fc74" class="joint-theme-default joint-cell joint-type-structurizr joint-type-structurizr-box joint-element" data-type="structurizr.box" transform="translate(1060,1670)" style="cursor: move !important"><g class="structurizrElement" id="v-29056"><rect class="structurizrBox structurizrHighlightableElement" id="v-29057" rx="1" ry="1" stroke="#696969" stroke-width="2" pointer-events="visiblePainted" fill="#757575" width="450" height="300"></rect><text class="structurizrName" id="v-29058" font-size="34" y="0.8em" xml:space="preserve" font-weight="bold" text-anchor="middle" pointer-events="visible" font-family="Open Sans" fill="#ffffff" transform="matrix(1,0,0,1,225,75)"><tspan id="v-29063" class="v-line" dy="0em" x="0">GitHub</tspan></text><text class="structurizrMetaData" id="v-29059" font-size="19" y="0.8em" xml:space="preserve" text-anchor="middle" font-family="Open Sans" fill="#ffffff" transform="matrix(1,0,0,1,225,115)"><tspan id="v-29064" class="v-line" dy="0em" x="0">[Software System]</tspan></text><text class="structurizrDescription" id="v-29060" font-size="24" y="0.8em" xml:space="preserve" text-anchor="middle" font-family="Open Sans" fill="#ffffff" transform="matrix(1,0,0,1,225,165)"><tspan id="v-29065" class="v-line" dy="0em" x="0">A hosting service for version control</tspan><tspan id="v-29066" class="v-line" dy="1.2em" x="0">using Git</tspan></text><text class="structurizrNavigation" id="v-29061" font-weight="bold" text-anchor="middle" display="none" font-family="Open Sans" fill="#989898" font-size="24" transform="matrix(1,0,0,1,225,270)"></text><image class="structurizrIcon" id="v-29062"></image></g></g><g id="j_1859" model-id="e77505a9-b736-49ba-bb9c-40dba996ddd1" class="joint-theme-default joint-cell joint-type-structurizr joint-type-structurizr-relationship joint-link" data-type="structurizr.relationship"><path class="connection" stroke="#707070" id="v-29085" stroke-width="2" stroke-dasharray="30 30" fill="none" d="M 2161 1670 1928 1400"></path><path class="marker-source" fill="black" stroke="black" transform="translate(2161,1670) scale(1,1) rotate(-130.79937771372565)"></path><path class="marker-target" fill="#707070" stroke="#707070" id="v-29087" d="M 20 0 L 0 10 L 20 20 z" transform="translate(1922.570068359375,1378.4659423828125) scale(1,1) rotate(49.20062228627435)"></path><path class="connection-wrap" id="v-29086" fill="none" d="M 2161 1670 1928 1400"></path><title class="tooltip"></title><g class="labels"><g class="label" id="v-29074" label-idx="0"  transform="translate(2044.5, 1535)"><rect id="v-29076" fill="#ffffff" rx="3" ry="3" stroke="#ffffff" stroke-width="20px" pointer-events="none" width="189.9326629638672" height="119.80524444580078" transform="matrix(1,0,0,1,-95,-59.900001525878906)"></rect><text id="v-29075" font-size="24px" y="0.8em" xml:space="preserve" text-anchor="middle" pointer-events="none" fill="#707070" font-family="Open Sans" font-weight="bold" transform="matrix(1,0,0,1,0,-53.29999923706055)"><tspan id="v-29077" class="v-line" dy="0em" x="0">publishes game</tspan><tspan id="v-29078" class="v-line" dy="1.2em" x="0">event and</tspan><tspan id="v-29079" class="v-line" dy="1.2em" x="0">receives table</tspan><tspan id="v-29080" class="v-line" dy="1.2em" x="0">events</tspan></text></g><g class="label" id="v-29081" label-idx="1"  transform="translate(2044.5, 1602.2)"><rect id="v-29083" fill="#ffffff" rx="3" ry="3" pointer-events="none" width="0" height="0" transform="matrix(1,0,0,1,0,0)"></rect><text id="v-29082" font-size="19px" y="0.8em" display="none" xml:space="preserve" text-anchor="middle" pointer-events="none" fill="#707070" font-family="Open Sans" font-weight="normal" transform="matrix(1,0,0,1,0,0)"><tspan id="v-29084" class="v-line v-empty-line" dy="0em" x="0" style="fill-opacity: 0; stroke-opacity: 0;">-</tspan></text></g></g><g class="marker-vertices" display="none"></g><g class="marker-arrowheads" id="v-29089" display="none"><g class="marker-arrowhead-group marker-arrowhead-group-source" id="v-29071"><path class="marker-arrowhead" end="source" d="M 26 0 L 0 13 L 26 26 z"></path></g><g class="marker-arrowhead-group marker-arrowhead-group-target" id="v-29072"><path class="marker-arrowhead" end="target" d="M 26 0 L 0 13 L 26 26 z"></path></g></g><g class="link-tools" id="v-29088" display="none"><g class="link-tool" id="v-29070" transform="translate(2134.866943359375, 1639.717041015625) "><g class="tool-remove" event="remove"><circle r="11"></circle><path transform="scale(.8) translate(-16, -16)" d="M24.778,21.419 19.276,15.917 24.777,10.415 21.949,7.585 16.447,13.087 10.945,7.585 8.117,10.415 13.618,15.917 8.116,21.419 10.946,24.248 16.447,18.746 21.948,24.248z"></path><title>Remove link.</title></g><g class="tool-options" event="link:options"><circle r="11" transform="translate(25)"></circle><path fill="white" transform="scale(.55) translate(29, -16)" d="M31.229,17.736c0.064-0.571,0.104-1.148,0.104-1.736s-0.04-1.166-0.104-1.737l-4.377-1.557c-0.218-0.716-0.504-1.401-0.851-2.05l1.993-4.192c-0.725-0.91-1.549-1.734-2.458-2.459l-4.193,1.994c-0.647-0.347-1.334-0.632-2.049-0.849l-1.558-4.378C17.165,0.708,16.588,0.667,16,0.667s-1.166,0.041-1.737,0.105L12.707,5.15c-0.716,0.217-1.401,0.502-2.05,0.849L6.464,4.005C5.554,4.73,4.73,5.554,4.005,6.464l1.994,4.192c-0.347,0.648-0.632,1.334-0.849,2.05l-4.378,1.557C0.708,14.834,0.667,15.412,0.667,16s0.041,1.165,0.105,1.736l4.378,1.558c0.217,0.715,0.502,1.401,0.849,2.049l-1.994,4.193c0.725,0.909,1.549,1.733,2.459,2.458l4.192-1.993c0.648,0.347,1.334,0.633,2.05,0.851l1.557,4.377c0.571,0.064,1.148,0.104,1.737,0.104c0.588,0,1.165-0.04,1.736-0.104l1.558-4.377c0.715-0.218,1.399-0.504,2.049-0.851l4.193,1.993c0.909-0.725,1.733-1.549,2.458-2.458l-1.993-4.193c0.347-0.647,0.633-1.334,0.851-2.049L31.229,17.736zM16,20.871c-2.69,0-4.872-2.182-4.872-4.871c0-2.69,2.182-4.872,4.872-4.872c2.689,0,4.871,2.182,4.871,4.872C20.871,18.689,18.689,20.871,16,20.871z"></path><title>Link options.</title></g></g></g></g><g id="j_1860" model-id="dfe33330-0483-42f3-b4bf-b8b6068a5fd6" class="joint-theme-default joint-cell joint-type-structurizr joint-type-structurizr-relationship joint-link" data-type="structurizr.relationship"><path class="connection" stroke="#707070" id="v-29103" stroke-width="2" stroke-dasharray="30 30" fill="none" d="M 1436 840 1639 1070"></path><path class="marker-source" fill="black" stroke="black" transform="translate(1436,840) scale(1,1) rotate(48.59954893553427)"></path><path class="marker-target" fill="#707070" stroke="#707070" id="v-29105" d="M 20 0 L 0 10 L 20 20 z" transform="translate(1644.4989013671875,1091.6131591796875) scale(1,1) rotate(-131.40045106446573)"></path><path class="connection-wrap" id="v-29104" fill="none" d="M 1436 840 1639 1070"></path><title class="tooltip"></title><g class="labels"><g class="label" id="v-29095" label-idx="0"  transform="translate(1537.5, 955)"><rect id="v-29097" fill="#ffffff" rx="3" ry="3" stroke="#ffffff" stroke-width="20px" pointer-events="none" width="55.35725784301758" height="33.405242919921875" transform="matrix(1,0,0,1,-27.700000762939453,-16.700000762939453)"></rect><text id="v-29096" font-size="24px" y="0.8em" xml:space="preserve" text-anchor="middle" pointer-events="none" fill="#707070" font-family="Open Sans" font-weight="bold" transform="matrix(1,0,0,1,0,-10.100000381469727)"><tspan id="v-29098" class="v-line" dy="0em" x="0">uses</tspan></text></g><g class="label" id="v-29099" label-idx="1"  transform="translate(1537.5, 986.2)"><rect id="v-29101" fill="#ffffff" rx="3" ry="3" pointer-events="none" width="0" height="0" transform="matrix(1,0,0,1,0,0)"></rect><text id="v-29100" font-size="19px" y="0.8em" display="none" xml:space="preserve" text-anchor="middle" pointer-events="none" fill="#707070" font-family="Open Sans" font-weight="normal" transform="matrix(1,0,0,1,0,0)"><tspan id="v-29102" class="v-line v-empty-line" dy="0em" x="0" style="fill-opacity: 0; stroke-opacity: 0;">-</tspan></text></g></g><g class="marker-vertices" display="none"></g><g class="marker-arrowheads" id="v-29107" display="none"><g class="marker-arrowhead-group marker-arrowhead-group-source" id="v-29092"><path class="marker-arrowhead" end="source" d="M 26 0 L 0 13 L 26 26 z"></path></g><g class="marker-arrowhead-group marker-arrowhead-group-target" id="v-29093"><path class="marker-arrowhead" end="target" d="M 26 0 L 0 13 L 26 26 z"></path></g></g><g class="link-tools" id="v-29106" display="none"><g class="link-tool" id="v-29091" transform="translate(1462.4691162109375, 869.9896850585938) "><g class="tool-remove" event="remove"><circle r="11"></circle><path transform="scale(.8) translate(-16, -16)" d="M24.778,21.419 19.276,15.917 24.777,10.415 21.949,7.585 16.447,13.087 10.945,7.585 8.117,10.415 13.618,15.917 8.116,21.419 10.946,24.248 16.447,18.746 21.948,24.248z"></path><title>Remove link.</title></g><g class="tool-options" event="link:options"><circle r="11" transform="translate(25)"></circle><path fill="white" transform="scale(.55) translate(29, -16)" d="M31.229,17.736c0.064-0.571,0.104-1.148,0.104-1.736s-0.04-1.166-0.104-1.737l-4.377-1.557c-0.218-0.716-0.504-1.401-0.851-2.05l1.993-4.192c-0.725-0.91-1.549-1.734-2.458-2.459l-4.193,1.994c-0.647-0.347-1.334-0.632-2.049-0.849l-1.558-4.378C17.165,0.708,16.588,0.667,16,0.667s-1.166,0.041-1.737,0.105L12.707,5.15c-0.716,0.217-1.401,0.502-2.05,0.849L6.464,4.005C5.554,4.73,4.73,5.554,4.005,6.464l1.994,4.192c-0.347,0.648-0.632,1.334-0.849,2.05l-4.378,1.557C0.708,14.834,0.667,15.412,0.667,16s0.041,1.165,0.105,1.736l4.378,1.558c0.217,0.715,0.502,1.401,0.849,2.049l-1.994,4.193c0.725,0.909,1.549,1.733,2.459,2.458l4.192-1.993c0.648,0.347,1.334,0.633,2.05,0.851l1.557,4.377c0.571,0.064,1.148,0.104,1.737,0.104c0.588,0,1.165-0.04,1.736-0.104l1.558-4.377c0.715-0.218,1.399-0.504,2.049-0.851l4.193,1.993c0.909-0.725,1.733-1.549,2.458-2.458l-1.993-4.193c0.347-0.647,0.633-1.334,0.851-2.049L31.229,17.736zM16,20.871c-2.69,0-4.872-2.182-4.872-4.871c0-2.69,2.182-4.872,4.872-4.872c2.689,0,4.871,2.182,4.871,4.872C20.871,18.689,18.689,20.871,16,20.871z"></path><title>Link options.</title></g></g></g></g><g id="j_1861" model-id="705e3356-d09f-4047-893a-73688fd49933" class="joint-theme-default joint-cell joint-type-structurizr joint-type-structurizr-relationship joint-link" data-type="structurizr.relationship"><path class="connection" stroke="#707070" id="v-29121" stroke-width="2" stroke-dasharray="30 30" fill="none" d="M 2120 840 1925 1070"></path><path class="marker-source" fill="black" stroke="black" transform="translate(2120,840) scale(1,1) rotate(-229.66941894423994)"></path><path class="marker-target" fill="#707070" stroke="#707070" id="v-29123" d="M 20 0 L 0 10 L 20 20 z" transform="translate(1904.376708984375,1078.5279541015625) scale(1,1) rotate(-49.669421547645136)"></path><path class="connection-wrap" id="v-29122" fill="none" d="M 2120 840 1925 1070"></path><title class="tooltip"></title><g class="labels"><g class="label" id="v-29113" label-idx="0"  transform="translate(2022.5, 955)"><rect id="v-29115" fill="#ffffff" rx="3" ry="3" stroke="#ffffff" stroke-width="20px" pointer-events="none" width="55.35725784301758" height="33.405242919921875" transform="matrix(1,0,0,1,-27.700000762939453,-16.700000762939453)"></rect><text id="v-29114" font-size="24px" y="0.8em" xml:space="preserve" text-anchor="middle" pointer-events="none" fill="#707070" font-family="Open Sans" font-weight="bold" transform="matrix(1,0,0,1,0,-10.100000381469727)"><tspan id="v-29116" class="v-line" dy="0em" x="0">uses</tspan></text></g><g class="label" id="v-29117" label-idx="1"  transform="translate(2022.5, 986.2)"><rect id="v-29119" fill="#ffffff" rx="3" ry="3" pointer-events="none" width="0" height="0" transform="matrix(1,0,0,1,0,0)"></rect><text id="v-29118" font-size="19px" y="0.8em" display="none" xml:space="preserve" text-anchor="middle" pointer-events="none" fill="#707070" font-family="Open Sans" font-weight="normal" transform="matrix(1,0,0,1,0,0)"><tspan id="v-29120" class="v-line v-empty-line" dy="0em" x="0" style="fill-opacity: 0; stroke-opacity: 0;">-</tspan></text></g></g><g class="marker-vertices" display="none"></g><g class="marker-arrowheads" id="v-29125" display="none"><g class="marker-arrowhead-group marker-arrowhead-group-source" id="v-29110"><path class="marker-arrowhead" end="source" d="M 26 0 L 0 13 L 26 26 z"></path></g><g class="marker-arrowhead-group marker-arrowhead-group-target" id="v-29111"><path class="marker-arrowhead" end="target" d="M 26 0 L 0 13 L 26 26 z"></path></g></g><g class="link-tools" id="v-29124" display="none"><g class="link-tool" id="v-29109" transform="translate(2094.132568359375, 870.51025390625) "><g class="tool-remove" event="remove"><circle r="11"></circle><path transform="scale(.8) translate(-16, -16)" d="M24.778,21.419 19.276,15.917 24.777,10.415 21.949,7.585 16.447,13.087 10.945,7.585 8.117,10.415 13.618,15.917 8.116,21.419 10.946,24.248 16.447,18.746 21.948,24.248z"></path><title>Remove link.</title></g><g class="tool-options" event="link:options"><circle r="11" transform="translate(25)"></circle><path fill="white" transform="scale(.55) translate(29, -16)" d="M31.229,17.736c0.064-0.571,0.104-1.148,0.104-1.736s-0.04-1.166-0.104-1.737l-4.377-1.557c-0.218-0.716-0.504-1.401-0.851-2.05l1.993-4.192c-0.725-0.91-1.549-1.734-2.458-2.459l-4.193,1.994c-0.647-0.347-1.334-0.632-2.049-0.849l-1.558-4.378C17.165,0.708,16.588,0.667,16,0.667s-1.166,0.041-1.737,0.105L12.707,5.15c-0.716,0.217-1.401,0.502-2.05,0.849L6.464,4.005C5.554,4.73,4.73,5.554,4.005,6.464l1.994,4.192c-0.347,0.648-0.632,1.334-0.849,2.05l-4.378,1.557C0.708,14.834,0.667,15.412,0.667,16s0.041,1.165,0.105,1.736l4.378,1.558c0.217,0.715,0.502,1.401,0.849,2.049l-1.994,4.193c0.725,0.909,1.549,1.733,2.459,2.458l4.192-1.993c0.648,0.347,1.334,0.633,2.05,0.851l1.557,4.377c0.571,0.064,1.148,0.104,1.737,0.104c0.588,0,1.165-0.04,1.736-0.104l1.558-4.377c0.715-0.218,1.399-0.504,2.049-0.851l4.193,1.993c0.909-0.725,1.733-1.549,2.458-2.458l-1.993-4.193c0.347-0.647,0.633-1.334,0.851-2.049L31.229,17.736zM16,20.871c-2.69,0-4.872-2.182-4.872-4.871c0-2.69,2.182-4.872,4.872-4.872c2.689,0,4.871,2.182,4.871,4.872C20.871,18.689,18.689,20.871,16,20.871z"></path><title>Link options.</title></g></g></g></g><g id="j_1862" model-id="8f3d9785-3194-467f-aeb3-756cd15fc6b7" class="joint-theme-default joint-cell joint-type-structurizr joint-type-structurizr-relationship joint-link" data-type="structurizr.relationship"><path class="connection" stroke="#707070" id="v-29142" stroke-width="2" stroke-dasharray="30 30" fill="none" d="M 1657 1385 1426 1655"></path><path class="marker-source" fill="black" stroke="black" transform="translate(1657,1385) scale(1,1) rotate(-229.4318397084309)"></path><path class="marker-target" fill="#707070" stroke="#707070" id="v-29144" d="M 20 0 L 0 10 L 20 20 z" transform="translate(1405.4036865234375,1663.4964599609375) scale(1,1) rotate(-49.431834893198676)"></path><path class="connection-wrap" id="v-29143" fill="none" d="M 1657 1385 1426 1655"></path><title class="tooltip"></title><g class="labels"><g class="label" id="v-29133" label-idx="0"  transform="translate(1541.5, 1520)"><rect id="v-29135" fill="#ffffff" rx="3" ry="3" stroke="#ffffff" stroke-width="20px" pointer-events="none" width="169.88951110839844" height="62.20524787902832" transform="matrix(1,0,0,1,-84.9000015258789,-31.100000381469727)"></rect><text id="v-29134" font-size="24px" y="0.8em" xml:space="preserve" text-anchor="middle" pointer-events="none" fill="#707070" font-family="Open Sans" font-weight="bold" transform="matrix(1,0,0,1,0,-24.5)"><tspan id="v-29136" class="v-line" dy="0em" x="0">authenticates</tspan><tspan id="v-29137" class="v-line" dy="1.2em" x="0">users using</tspan></text></g><g class="label" id="v-29138" label-idx="1"  transform="translate(1541.5, 1563.2)"><rect id="v-29140" fill="#ffffff" rx="3" ry="3" pointer-events="none" width="0" height="0" transform="matrix(1,0,0,1,0,0)"></rect><text id="v-29139" font-size="19px" y="0.8em" display="none" xml:space="preserve" text-anchor="middle" pointer-events="none" fill="#707070" font-family="Open Sans" font-weight="normal" transform="matrix(1,0,0,1,0,0)"><tspan id="v-29141" class="v-line v-empty-line" dy="0em" x="0" style="fill-opacity: 0; stroke-opacity: 0;">-</tspan></text></g></g><g class="marker-vertices" display="none"></g><g class="marker-arrowheads" id="v-29146" display="none"><g class="marker-arrowhead-group marker-arrowhead-group-source" id="v-29130"><path class="marker-arrowhead" end="source" d="M 26 0 L 0 13 L 26 26 z"></path></g><g class="marker-arrowhead-group marker-arrowhead-group-target" id="v-29131"><path class="marker-arrowhead" end="target" d="M 26 0 L 0 13 L 26 26 z"></path></g></g><g class="link-tools" id="v-29145" display="none"><g class="link-tool" id="v-29129" transform="translate(1630.9962158203125, 1415.39404296875) "><g class="tool-remove" event="remove"><circle r="11"></circle><path transform="scale(.8) translate(-16, -16)" d="M24.778,21.419 19.276,15.917 24.777,10.415 21.949,7.585 16.447,13.087 10.945,7.585 8.117,10.415 13.618,15.917 8.116,21.419 10.946,24.248 16.447,18.746 21.948,24.248z"></path><title>Remove link.</title></g><g class="tool-options" event="link:options"><circle r="11" transform="translate(25)"></circle><path fill="white" transform="scale(.55) translate(29, -16)" d="M31.229,17.736c0.064-0.571,0.104-1.148,0.104-1.736s-0.04-1.166-0.104-1.737l-4.377-1.557c-0.218-0.716-0.504-1.401-0.851-2.05l1.993-4.192c-0.725-0.91-1.549-1.734-2.458-2.459l-4.193,1.994c-0.647-0.347-1.334-0.632-2.049-0.849l-1.558-4.378C17.165,0.708,16.588,0.667,16,0.667s-1.166,0.041-1.737,0.105L12.707,5.15c-0.716,0.217-1.401,0.502-2.05,0.849L6.464,4.005C5.554,4.73,4.73,5.554,4.005,6.464l1.994,4.192c-0.347,0.648-0.632,1.334-0.849,2.05l-4.378,1.557C0.708,14.834,0.667,15.412,0.667,16s0.041,1.165,0.105,1.736l4.378,1.558c0.217,0.715,0.502,1.401,0.849,2.049l-1.994,4.193c0.725,0.909,1.549,1.733,2.459,2.458l4.192-1.993c0.648,0.347,1.334,0.633,2.05,0.851l1.557,4.377c0.571,0.064,1.148,0.104,1.737,0.104c0.588,0,1.165-0.04,1.736-0.104l1.558-4.377c0.715-0.218,1.399-0.504,2.049-0.851l4.193,1.993c0.909-0.725,1.733-1.549,2.458-2.458l-1.993-4.193c0.347-0.647,0.633-1.334,0.851-2.049L31.229,17.736zM16,20.871c-2.69,0-4.872-2.182-4.872-4.871c0-2.69,2.182-4.872,4.872-4.872c2.689,0,4.871,2.182,4.871,4.872C20.871,18.689,18.689,20.871,16,20.871z"></path><title>Link options.</title></g></g></g></g></g><defs id="v-4"></defs></svg>