<svg xmlns="http://www.w3.org/2000/svg" xmlns:xlink="http://www.w3.org/1999/xlink" version="1.1" viewBox="0 0 3508 2480"><g id="v-3" class="joint-viewport" transform="matrix(1,0,0,1,0,0)"><g id="j_1891" model-id="50553c40-6b25-488a-b3c9-cce1d8777f4d" class="joint-theme-default joint-cell joint-type-structurizr joint-type-structurizr-diagrammetadata joint-element" data-type="structurizr.diagramMetadata" transform="translate(20,2464)"><g id="v-29518"><text class="structurizrDiagramMetadata structurizrMetadata" id="v-29519" font-weight="normal" font-size="22px" text-anchor="start" fill="#777777" pointer-events="none" font-family="Open Sans"></text></g></g><g id="j_1890" model-id="eaef0bc1-1d60-4a3b-b194-bfaaa7f72d71" class="joint-theme-default joint-cell joint-type-structurizr joint-type-structurizr-diagramdescription joint-element" data-type="structurizr.diagramDescription" transform="translate(20,2435)"><g id="v-29514"><text class="structurizrDiagramDescription structurizrMetadata" id="v-29515" font-size="22px" y="0.8em" xml:space="preserve" font-weight="normal" text-anchor="start" fill="#777777" pointer-events="none" font-family="Open Sans" transform="matrix(1,0,0,1,0,0)"><tspan id="v-29516" class="v-line" dy="0em" x="0">The system context diagram for Gamezeug. | Diagram created with Structurizr</tspan></text></g></g><g id="j_1889" model-id="6d450130-eaf1-452b-9854-8e289c94e78f" class="joint-theme-default joint-cell joint-type-structurizr joint-type-structurizr-diagramtitle joint-element" data-type="structurizr.diagramTitle" transform="translate(20,2389)"><g id="v-29510"><text class="structurizrDiagramTitle structurizrMetadata" id="v-29511" font-size="36px" y="0.8em" xml:space="preserve" font-weight="bold" text-anchor="start" fill="#000000" pointer-events="none" font-family="Open Sans" transform="matrix(1,0,0,1,0,0)"><tspan id="v-29512" class="v-line" dy="0em" x="0">System Context diagram for Gamezeug</tspan></text></g></g><g id="j_1879" model-id="bb7d3515-130e-430f-becd-80d9be352aa9" class="joint-theme-default joint-cell joint-type-structurizr joint-type-structurizr-box joint-element" data-type="structurizr.box" transform="translate(2065,1670)" style="cursor: move !important"><g class="structurizrElement" id="v-29342"><rect class="structurizrBox structurizrHighlightableElement" id="v-29343" rx="1" ry="1" stroke="#696969" stroke-width="2" pointer-events="visiblePainted" fill="#757575" width="450" height="300"></rect><text class="structurizrName" id="v-29344" font-size="34" y="0.8em" xml:space="preserve" font-weight="bold" text-anchor="middle" pointer-events="visible" font-family="Open Sans" fill="#ffffff" transform="matrix(1,0,0,1,225,75)"><tspan id="v-29349" class="v-line" dy="0em" x="0">Game</tspan></text><text class="structurizrMetaData" id="v-29345" font-size="19" y="0.8em" xml:space="preserve" text-anchor="middle" font-family="Open Sans" fill="#ffffff" transform="matrix(1,0,0,1,225,115)"><tspan id="v-29350" class="v-line" dy="0em" x="0">[Software System]</tspan></text><text class="structurizrDescription" id="v-29346" font-size="24" y="0.8em" xml:space="preserve" text-anchor="middle" font-family="Open Sans" fill="#ffffff" transform="matrix(1,0,0,1,225,165)"><tspan id="v-29351" class="v-line" dy="0em" x="0">An open source game which is</tspan><tspan id="v-29352" class="v-line" dy="1.2em" x="0">registered in Gamezeug</tspan></text><text class="structurizrNavigation" id="v-29347" font-weight="bold" text-anchor="middle" display="none" font-family="Open Sans" fill="#989898" font-size="24" transform="matrix(1,0,0,1,225,270)"></text><image class="structurizrIcon" id="v-29348"></image></g></g><g id="j_1880" model-id="22c306fa-3db6-41d5-a3f6-a97eab4fb3bd" class="joint-theme-default joint-cell joint-type-structurizr joint-type-structurizr-box joint-element" data-type="structurizr.box" transform="translate(2121,1711)" style="cursor: move !important"><g class="structurizrElement" id="v-29356"><rect class="structurizrBox structurizrHighlightableElement" id="v-29357" rx="1" ry="1" stroke="#696969" stroke-width="2" pointer-events="visiblePainted" fill="#757575" width="450" height="300"></rect><text class="structurizrName" id="v-29358" font-size="34" y="0.8em" xml:space="preserve" font-weight="bold" text-anchor="middle" pointer-events="visible" font-family="Open Sans" fill="#ffffff" transform="matrix(1,0,0,1,225,75)"><tspan id="v-29363" class="v-line" dy="0em" x="0">Game 2</tspan></text><text class="structurizrMetaData" id="v-29359" font-size="19" y="0.8em" xml:space="preserve" text-anchor="middle" font-family="Open Sans" fill="#ffffff" transform="matrix(1,0,0,1,225,115)"><tspan id="v-29364" class="v-line" dy="0em" x="0">[Software System]</tspan></text><text class="structurizrDescription" id="v-29360" font-size="24" y="0.8em" xml:space="preserve" text-anchor="middle" font-family="Open Sans" fill="#ffffff" transform="matrix(1,0,0,1,225,165)"><tspan id="v-29365" class="v-line" dy="0em" x="0">An open source game which is</tspan><tspan id="v-29366" class="v-line" dy="1.2em" x="0">registered in Gamezeug</tspan></text><text class="structurizrNavigation" id="v-29361" font-weight="bold" text-anchor="middle" display="none" font-family="Open Sans" fill="#989898" font-size="24" transform="matrix(1,0,0,1,225,270)"></text><image class="structurizrIcon" id="v-29362"></image></g></g><g id="j_1881" model-id="e90c530e-385e-4510-8344-bf5ce322a63a" class="joint-theme-default joint-cell joint-type-structurizr joint-type-structurizr-person joint-element" data-type="structurizr.person" transform="translate(1060,440)" style="cursor: move !important"><g class="structurizrElement" id="v-29370"><rect class="structurizrPersonBody structurizrHighlightableElement" x="0" y="160" width="400" height="240" rx="70" id="v-29372" stroke="#073b6f" stroke-width="2" pointer-events="visiblePainted" fill="#08427b"></rect><circle class="structurizrPersonHead structurizrHighlightableElement" cx="200" cy="88.88888888888889" r="88.88888888888889" id="v-29371" stroke="#073b6f" stroke-width="2" pointer-events="visiblePainted" fill="#08427b"></circle><line class="structurizrPersonRightArm" x1="80" y1="266.6666666666667" x2="80" y2="400" style="stroke-width:2px" id="v-29378" stroke="#073b6f"></line><line class="structurizrPersonLeftArm" x1="320" y1="266.6666666666667" x2="320" y2="400" style="stroke-width:2px" id="v-29379" stroke="#073b6f"></line><text class="structurizrName" id="v-29373" font-size="34px" y="0.8em" xml:space="preserve" font-weight="bold" text-anchor="middle" pointer-events="visible" font-family="Open Sans" fill="#ffffff" transform="matrix(1,0,0,1,200,205)"><tspan id="v-29380" class="v-line" dy="0em" x="0">Game Admin</tspan></text><text class="structurizrMetaData" id="v-29374" font-size="19px" y="0.8em" xml:space="preserve" text-anchor="middle" font-family="Open Sans" fill="#ffffff" transform="matrix(1,0,0,1,200,245)"><tspan id="v-29381" class="v-line" dy="0em" x="0">[Person]</tspan></text><text class="structurizrDescription" id="v-29375" font-size="24px" y="0.8em" xml:space="preserve" text-anchor="middle" font-family="Open Sans" fill="#ffffff" transform="matrix(1,0,0,1,200,295)"><tspan id="v-29382" class="v-line" dy="0em" x="0">A person who can administer</tspan><tspan id="v-29383" class="v-line" dy="1.2em" x="0">games in Gamezeug</tspan></text><text class="structurizrNavigation" id="v-29376" font-weight="bold" text-anchor="middle" display="none" font-family="Open Sans" fill="#46719c" font-size="24" transform="matrix(1,0,0,1,200,371.20001220703125)"></text><image class="structurizrIcon" id="v-29377"></image></g></g><g id="j_1882" model-id="e43afe36-e14c-435f-99e3-e57d2928be92" class="joint-theme-default joint-cell joint-type-structurizr joint-type-structurizr-person joint-element" data-type="structurizr.person" transform="translate(2090,440)" style="cursor: move !important"><g class="structurizrElement" id="v-29387"><rect class="structurizrPersonBody structurizrHighlightableElement" x="0" y="160" width="400" height="240" rx="70" id="v-29389" stroke="#073b6f" stroke-width="2" pointer-events="visiblePainted" fill="#08427b"></rect><circle class="structurizrPersonHead structurizrHighlightableElement" cx="200" cy="88.88888888888889" r="88.88888888888889" id="v-29388" stroke="#073b6f" stroke-width="2" pointer-events="visiblePainted" fill="#08427b"></circle><line class="structurizrPersonRightArm" x1="80" y1="266.6666666666667" x2="80" y2="400" style="stroke-width:2px" id="v-29395" stroke="#073b6f"></line><line class="structurizrPersonLeftArm" x1="320" y1="266.6666666666667" x2="320" y2="400" style="stroke-width:2px" id="v-29396" stroke="#073b6f"></line><text class="structurizrName" id="v-29390" font-size="34px" y="0.8em" xml:space="preserve" font-weight="bold" text-anchor="middle" pointer-events="visible" font-family="Open Sans" fill="#ffffff" transform="matrix(1,0,0,1,200,205)"><tspan id="v-29397" class="v-line" dy="0em" x="0">Gamer</tspan></text><text class="structurizrMetaData" id="v-29391" font-size="19px" y="0.8em" xml:space="preserve" text-anchor="middle" font-family="Open Sans" fill="#ffffff" transform="matrix(1,0,0,1,200,245)"><tspan id="v-29398" class="v-line" dy="0em" x="0">[Person]</tspan></text><text class="structurizrDescription" id="v-29392" font-size="24px" y="0.8em" xml:space="preserve" text-anchor="middle" font-family="Open Sans" fill="#ffffff" transform="matrix(1,0,0,1,200,295)"><tspan id="v-29399" class="v-line" dy="0em" x="0">A gamer person who likes to play</tspan><tspan id="v-29400" class="v-line" dy="1.2em" x="0">games</tspan></text><text class="structurizrNavigation" id="v-29393" font-weight="bold" text-anchor="middle" display="none" font-family="Open Sans" fill="#46719c" font-size="24" transform="matrix(1,0,0,1,200,371.20001220703125)"></text><image class="structurizrIcon" id="v-29394"></image></g></g><g id="j_1883" model-id="309056d1-70f1-4d2a-8eb7-9f13ee50e002" class="joint-theme-default joint-cell joint-type-structurizr joint-type-structurizr-box joint-element" data-type="structurizr.box" transform="translate(1560,1085)" style="cursor: move !important"><g class="structurizrElement" id="v-29404"><rect class="structurizrBox structurizrHighlightableElement" id="v-29405" rx="1" ry="1" stroke="#0f5eaa" stroke-width="2" pointer-events="visiblePainted" fill="#1168bd" width="450" height="300"></rect><text class="structurizrName" id="v-29406" font-size="34" y="0.8em" xml:space="preserve" font-weight="bold" text-anchor="middle" pointer-events="visible" font-family="Open Sans" fill="#ffffff" transform="matrix(1,0,0,1,225,75)"><tspan id="v-29411" class="v-line" dy="0em" x="0">Gamezeug</tspan></text><text class="structurizrMetaData" id="v-29407" font-size="19" y="0.8em" xml:space="preserve" text-anchor="middle" font-family="Open Sans" fill="#ffffff" transform="matrix(1,0,0,1,225,115)"><tspan id="v-29412" class="v-line" dy="0em" x="0">[Software System]</tspan></text><text class="structurizrDescription" id="v-29408" font-size="24" y="0.8em" xml:space="preserve" text-anchor="middle" font-family="Open Sans" fill="#ffffff" transform="matrix(1,0,0,1,225,165)"><tspan id="v-29413" class="v-line" dy="0em" x="0">The second best open source gaming</tspan><tspan id="v-29414" class="v-line" dy="1.2em" x="0">platform</tspan></text><text class="structurizrNavigation" id="v-29409" font-weight="bold" text-anchor="middle" display="none" font-family="Open Sans" fill="#4d8ece" font-size="24" transform="matrix(1,0,0,1,225,270)"></text><image class="structurizrIcon" id="v-29410"></image></g></g><g id="j_1884" model-id="dfbe8071-04e4-40c2-ab04-b3e211d9e9ff" class="joint-theme-default joint-cell joint-type-structurizr joint-type-structurizr-box joint-element" data-type="structurizr.box" transform="translate(1010,1670)" style="cursor: move !important"><g class="structurizrElement" id="v-29418"><rect class="structurizrBox structurizrHighlightableElement" id="v-29419" rx="1" ry="1" stroke="#696969" stroke-width="2" pointer-events="visiblePainted" fill="#757575" width="450" height="300"></rect><text class="structurizrName" id="v-29420" font-size="34" y="0.8em" xml:space="preserve" font-weight="bold" text-anchor="middle" pointer-events="visible" font-family="Open Sans" fill="#ffffff" transform="matrix(1,0,0,1,225,75)"><tspan id="v-29425" class="v-line" dy="0em" x="0">GitHub</tspan></text><text class="structurizrMetaData" id="v-29421" font-size="19" y="0.8em" xml:space="preserve" text-anchor="middle" font-family="Open Sans" fill="#ffffff" transform="matrix(1,0,0,1,225,115)"><tspan id="v-29426" class="v-line" dy="0em" x="0">[Software System]</tspan></text><text class="structurizrDescription" id="v-29422" font-size="24" y="0.8em" xml:space="preserve" text-anchor="middle" font-family="Open Sans" fill="#ffffff" transform="matrix(1,0,0,1,225,165)"><tspan id="v-29427" class="v-line" dy="0em" x="0">A hosting service for version control</tspan><tspan id="v-29428" class="v-line" dy="1.2em" x="0">using Git</tspan></text><text class="structurizrNavigation" id="v-29423" font-weight="bold" text-anchor="middle" display="none" font-family="Open Sans" fill="#989898" font-size="24" transform="matrix(1,0,0,1,225,270)"></text><image class="structurizrIcon" id="v-29424"></image></g></g><g id="j_1885" model-id="965933ae-cc92-4548-8635-d4f37dd6e33d" class="joint-theme-default joint-cell joint-type-structurizr joint-type-structurizr-relationship joint-link" data-type="structurizr.relationship"><path class="connection" stroke="#707070" id="v-29447" stroke-width="2" stroke-dasharray="30 30" fill="none" d="M 2161 1670 1928 1400"></path><path class="marker-source" fill="black" stroke="black" transform="translate(2161,1670) scale(1,1) rotate(-130.79937771372565)"></path><path class="marker-target" fill="#707070" stroke="#707070" id="v-29449" d="M 20 0 L 0 10 L 20 20 z" transform="translate(1922.570068359375,1378.4659423828125) scale(1,1) rotate(49.20062228627435)"></path><path class="connection-wrap" id="v-29448" fill="none" d="M 2161 1670 1928 1400"></path><title class="tooltip"></title><g class="labels"><g class="label" id="v-29436" label-idx="0"  transform="translate(2044.5, 1535)"><rect id="v-29438" fill="#ffffff" rx="3" ry="3" stroke="#ffffff" stroke-width="20px" pointer-events="none" width="189.9326629638672" height="119.80524444580078" transform="matrix(1,0,0,1,-95,-59.900001525878906)"></rect><text id="v-29437" font-size="24px" y="0.8em" xml:space="preserve" text-anchor="middle" pointer-events="none" fill="#707070" font-family="Open Sans" font-weight="bold" transform="matrix(1,0,0,1,0,-53.29999923706055)"><tspan id="v-29439" class="v-line" dy="0em" x="0">publishes game</tspan><tspan id="v-29440" class="v-line" dy="1.2em" x="0">event and</tspan><tspan id="v-29441" class="v-line" dy="1.2em" x="0">receives table</tspan><tspan id="v-29442" class="v-line" dy="1.2em" x="0">events</tspan></text></g><g class="label" id="v-29443" label-idx="1"  transform="translate(2044.5, 1602.2)"><rect id="v-29445" fill="#ffffff" rx="3" ry="3" pointer-events="none" width="0" height="0" transform="matrix(1,0,0,1,0,0)"></rect><text id="v-29444" font-size="19px" y="0.8em" display="none" xml:space="preserve" text-anchor="middle" pointer-events="none" fill="#707070" font-family="Open Sans" font-weight="normal" transform="matrix(1,0,0,1,0,0)"><tspan id="v-29446" class="v-line v-empty-line" dy="0em" x="0" style="fill-opacity: 0; stroke-opacity: 0;">-</tspan></text></g></g><g class="marker-vertices" display="none"></g><g class="marker-arrowheads" id="v-29451" display="none"><g class="marker-arrowhead-group marker-arrowhead-group-source" id="v-29433"><path class="marker-arrowhead" end="source" d="M 26 0 L 0 13 L 26 26 z"></path></g><g class="marker-arrowhead-group marker-arrowhead-group-target" id="v-29434"><path class="marker-arrowhead" end="target" d="M 26 0 L 0 13 L 26 26 z"></path></g></g><g class="link-tools" id="v-29450" display="none"><g class="link-tool" id="v-29432" transform="translate(2134.866943359375, 1639.717041015625) "><g class="tool-remove" event="remove"><circle r="11"></circle><path transform="scale(.8) translate(-16, -16)" d="M24.778,21.419 19.276,15.917 24.777,10.415 21.949,7.585 16.447,13.087 10.945,7.585 8.117,10.415 13.618,15.917 8.116,21.419 10.946,24.248 16.447,18.746 21.948,24.248z"></path><title>Remove link.</title></g><g class="tool-options" event="link:options"><circle r="11" transform="translate(25)"></circle><path fill="white" transform="scale(.55) translate(29, -16)" d="M31.229,17.736c0.064-0.571,0.104-1.148,0.104-1.736s-0.04-1.166-0.104-1.737l-4.377-1.557c-0.218-0.716-0.504-1.401-0.851-2.05l1.993-4.192c-0.725-0.91-1.549-1.734-2.458-2.459l-4.193,1.994c-0.647-0.347-1.334-0.632-2.049-0.849l-1.558-4.378C17.165,0.708,16.588,0.667,16,0.667s-1.166,0.041-1.737,0.105L12.707,5.15c-0.716,0.217-1.401,0.502-2.05,0.849L6.464,4.005C5.554,4.73,4.73,5.554,4.005,6.464l1.994,4.192c-0.347,0.648-0.632,1.334-0.849,2.05l-4.378,1.557C0.708,14.834,0.667,15.412,0.667,16s0.041,1.165,0.105,1.736l4.378,1.558c0.217,0.715,0.502,1.401,0.849,2.049l-1.994,4.193c0.725,0.909,1.549,1.733,2.459,2.458l4.192-1.993c0.648,0.347,1.334,0.633,2.05,0.851l1.557,4.377c0.571,0.064,1.148,0.104,1.737,0.104c0.588,0,1.165-0.04,1.736-0.104l1.558-4.377c0.715-0.218,1.399-0.504,2.049-0.851l4.193,1.993c0.909-0.725,1.733-1.549,2.458-2.458l-1.993-4.193c0.347-0.647,0.633-1.334,0.851-2.049L31.229,17.736zM16,20.871c-2.69,0-4.872-2.182-4.872-4.871c0-2.69,2.182-4.872,4.872-4.872c2.689,0,4.871,2.182,4.871,4.872C20.871,18.689,18.689,20.871,16,20.871z"></path><title>Link options.</title></g></g></g></g><g id="j_1886" model-id="9bb46ffa-2a11-4ef0-96eb-73c83690704f" class="joint-theme-default joint-cell joint-type-structurizr joint-type-structurizr-relationship joint-link" data-type="structurizr.relationship"><path class="connection" stroke="#707070" id="v-29465" stroke-width="2" stroke-dasharray="30 30" fill="none" d="M 1436 840 1639 1070"></path><path class="marker-source" fill="black" stroke="black" transform="translate(1436,840) scale(1,1) rotate(48.59954893553427)"></path><path class="marker-target" fill="#707070" stroke="#707070" id="v-29467" d="M 20 0 L 0 10 L 20 20 z" transform="translate(1644.4989013671875,1091.6131591796875) scale(1,1) rotate(-131.40045106446573)"></path><path class="connection-wrap" id="v-29466" fill="none" d="M 1436 840 1639 1070"></path><title class="tooltip"></title><g class="labels"><g class="label" id="v-29457" label-idx="0"  transform="translate(1537.5, 955)"><rect id="v-29459" fill="#ffffff" rx="3" ry="3" stroke="#ffffff" stroke-width="20px" pointer-events="none" width="55.35725784301758" height="33.405242919921875" transform="matrix(1,0,0,1,-27.700000762939453,-16.700000762939453)"></rect><text id="v-29458" font-size="24px" y="0.8em" xml:space="preserve" text-anchor="middle" pointer-events="none" fill="#707070" font-family="Open Sans" font-weight="bold" transform="matrix(1,0,0,1,0,-10.100000381469727)"><tspan id="v-29460" class="v-line" dy="0em" x="0">uses</tspan></text></g><g class="label" id="v-29461" label-idx="1"  transform="translate(1537.5, 986.2)"><rect id="v-29463" fill="#ffffff" rx="3" ry="3" pointer-events="none" width="0" height="0" transform="matrix(1,0,0,1,0,0)"></rect><text id="v-29462" font-size="19px" y="0.8em" display="none" xml:space="preserve" text-anchor="middle" pointer-events="none" fill="#707070" font-family="Open Sans" font-weight="normal" transform="matrix(1,0,0,1,0,0)"><tspan id="v-29464" class="v-line v-empty-line" dy="0em" x="0" style="fill-opacity: 0; stroke-opacity: 0;">-</tspan></text></g></g><g class="marker-vertices" display="none"></g><g class="marker-arrowheads" id="v-29469" display="none"><g class="marker-arrowhead-group marker-arrowhead-group-source" id="v-29454"><path class="marker-arrowhead" end="source" d="M 26 0 L 0 13 L 26 26 z"></path></g><g class="marker-arrowhead-group marker-arrowhead-group-target" id="v-29455"><path class="marker-arrowhead" end="target" d="M 26 0 L 0 13 L 26 26 z"></path></g></g><g class="link-tools" id="v-29468" display="none"><g class="link-tool" id="v-29453" transform="translate(1462.4691162109375, 869.9896850585938) "><g class="tool-remove" event="remove"><circle r="11"></circle><path transform="scale(.8) translate(-16, -16)" d="M24.778,21.419 19.276,15.917 24.777,10.415 21.949,7.585 16.447,13.087 10.945,7.585 8.117,10.415 13.618,15.917 8.116,21.419 10.946,24.248 16.447,18.746 21.948,24.248z"></path><title>Remove link.</title></g><g class="tool-options" event="link:options"><circle r="11" transform="translate(25)"></circle><path fill="white" transform="scale(.55) translate(29, -16)" d="M31.229,17.736c0.064-0.571,0.104-1.148,0.104-1.736s-0.04-1.166-0.104-1.737l-4.377-1.557c-0.218-0.716-0.504-1.401-0.851-2.05l1.993-4.192c-0.725-0.91-1.549-1.734-2.458-2.459l-4.193,1.994c-0.647-0.347-1.334-0.632-2.049-0.849l-1.558-4.378C17.165,0.708,16.588,0.667,16,0.667s-1.166,0.041-1.737,0.105L12.707,5.15c-0.716,0.217-1.401,0.502-2.05,0.849L6.464,4.005C5.554,4.73,4.73,5.554,4.005,6.464l1.994,4.192c-0.347,0.648-0.632,1.334-0.849,2.05l-4.378,1.557C0.708,14.834,0.667,15.412,0.667,16s0.041,1.165,0.105,1.736l4.378,1.558c0.217,0.715,0.502,1.401,0.849,2.049l-1.994,4.193c0.725,0.909,1.549,1.733,2.459,2.458l4.192-1.993c0.648,0.347,1.334,0.633,2.05,0.851l1.557,4.377c0.571,0.064,1.148,0.104,1.737,0.104c0.588,0,1.165-0.04,1.736-0.104l1.558-4.377c0.715-0.218,1.399-0.504,2.049-0.851l4.193,1.993c0.909-0.725,1.733-1.549,2.458-2.458l-1.993-4.193c0.347-0.647,0.633-1.334,0.851-2.049L31.229,17.736zM16,20.871c-2.69,0-4.872-2.182-4.872-4.871c0-2.69,2.182-4.872,4.872-4.872c2.689,0,4.871,2.182,4.871,4.872C20.871,18.689,18.689,20.871,16,20.871z"></path><title>Link options.</title></g></g></g></g><g id="j_1887" model-id="935a6ada-3f71-46c2-8fb1-29e157886d60" class="joint-theme-default joint-cell joint-type-structurizr joint-type-structurizr-relationship joint-link" data-type="structurizr.relationship"><path class="connection" stroke="#707070" id="v-29483" stroke-width="2" stroke-dasharray="30 30" fill="none" d="M 2120 840 1925 1070"></path><path class="marker-source" fill="black" stroke="black" transform="translate(2120,840) scale(1,1) rotate(-229.66941894423994)"></path><path class="marker-target" fill="#707070" stroke="#707070" id="v-29485" d="M 20 0 L 0 10 L 20 20 z" transform="translate(1904.376708984375,1078.5279541015625) scale(1,1) rotate(-49.669421547645136)"></path><path class="connection-wrap" id="v-29484" fill="none" d="M 2120 840 1925 1070"></path><title class="tooltip"></title><g class="labels"><g class="label" id="v-29475" label-idx="0"  transform="translate(2022.5, 955)"><rect id="v-29477" fill="#ffffff" rx="3" ry="3" stroke="#ffffff" stroke-width="20px" pointer-events="none" width="55.35725784301758" height="33.405242919921875" transform="matrix(1,0,0,1,-27.700000762939453,-16.700000762939453)"></rect><text id="v-29476" font-size="24px" y="0.8em" xml:space="preserve" text-anchor="middle" pointer-events="none" fill="#707070" font-family="Open Sans" font-weight="bold" transform="matrix(1,0,0,1,0,-10.100000381469727)"><tspan id="v-29478" class="v-line" dy="0em" x="0">uses</tspan></text></g><g class="label" id="v-29479" label-idx="1"  transform="translate(2022.5, 986.2)"><rect id="v-29481" fill="#ffffff" rx="3" ry="3" pointer-events="none" width="0" height="0" transform="matrix(1,0,0,1,0,0)"></rect><text id="v-29480" font-size="19px" y="0.8em" display="none" xml:space="preserve" text-anchor="middle" pointer-events="none" fill="#707070" font-family="Open Sans" font-weight="normal" transform="matrix(1,0,0,1,0,0)"><tspan id="v-29482" class="v-line v-empty-line" dy="0em" x="0" style="fill-opacity: 0; stroke-opacity: 0;">-</tspan></text></g></g><g class="marker-vertices" display="none"></g><g class="marker-arrowheads" id="v-29487" display="none"><g class="marker-arrowhead-group marker-arrowhead-group-source" id="v-29472"><path class="marker-arrowhead" end="source" d="M 26 0 L 0 13 L 26 26 z"></path></g><g class="marker-arrowhead-group marker-arrowhead-group-target" id="v-29473"><path class="marker-arrowhead" end="target" d="M 26 0 L 0 13 L 26 26 z"></path></g></g><g class="link-tools" id="v-29486" display="none"><g class="link-tool" id="v-29471" transform="translate(2094.132568359375, 870.51025390625) "><g class="tool-remove" event="remove"><circle r="11"></circle><path transform="scale(.8) translate(-16, -16)" d="M24.778,21.419 19.276,15.917 24.777,10.415 21.949,7.585 16.447,13.087 10.945,7.585 8.117,10.415 13.618,15.917 8.116,21.419 10.946,24.248 16.447,18.746 21.948,24.248z"></path><title>Remove link.</title></g><g class="tool-options" event="link:options"><circle r="11" transform="translate(25)"></circle><path fill="white" transform="scale(.55) translate(29, -16)" d="M31.229,17.736c0.064-0.571,0.104-1.148,0.104-1.736s-0.04-1.166-0.104-1.737l-4.377-1.557c-0.218-0.716-0.504-1.401-0.851-2.05l1.993-4.192c-0.725-0.91-1.549-1.734-2.458-2.459l-4.193,1.994c-0.647-0.347-1.334-0.632-2.049-0.849l-1.558-4.378C17.165,0.708,16.588,0.667,16,0.667s-1.166,0.041-1.737,0.105L12.707,5.15c-0.716,0.217-1.401,0.502-2.05,0.849L6.464,4.005C5.554,4.73,4.73,5.554,4.005,6.464l1.994,4.192c-0.347,0.648-0.632,1.334-0.849,2.05l-4.378,1.557C0.708,14.834,0.667,15.412,0.667,16s0.041,1.165,0.105,1.736l4.378,1.558c0.217,0.715,0.502,1.401,0.849,2.049l-1.994,4.193c0.725,0.909,1.549,1.733,2.459,2.458l4.192-1.993c0.648,0.347,1.334,0.633,2.05,0.851l1.557,4.377c0.571,0.064,1.148,0.104,1.737,0.104c0.588,0,1.165-0.04,1.736-0.104l1.558-4.377c0.715-0.218,1.399-0.504,2.049-0.851l4.193,1.993c0.909-0.725,1.733-1.549,2.458-2.458l-1.993-4.193c0.347-0.647,0.633-1.334,0.851-2.049L31.229,17.736zM16,20.871c-2.69,0-4.872-2.182-4.872-4.871c0-2.69,2.182-4.872,4.872-4.872c2.689,0,4.871,2.182,4.871,4.872C20.871,18.689,18.689,20.871,16,20.871z"></path><title>Link options.</title></g></g></g></g><g id="j_1888" model-id="03af2fec-0061-4c80-beab-8ee95217e4cd" class="joint-theme-default joint-cell joint-type-structurizr joint-type-structurizr-relationship joint-link" data-type="structurizr.relationship"><path class="connection" stroke="#707070" id="v-29504" stroke-width="2" stroke-dasharray="30 30" fill="none" d="M 1644 1385 1390 1655"></path><path class="marker-source" fill="black" stroke="black" transform="translate(1644,1385) scale(1,1) rotate(-226.76080166170232)"></path><path class="marker-target" fill="#707070" stroke="#707070" id="v-29506" d="M 20 0 L 0 10 L 20 20 z" transform="translate(1368.7149658203125,1663.1495361328125) scale(1,1) rotate(-46.76079917380554)"></path><path class="connection-wrap" id="v-29505" fill="none" d="M 1644 1385 1390 1655"></path><title class="tooltip"></title><g class="labels"><g class="label" id="v-29495" label-idx="0"  transform="translate(1517, 1520)"><rect id="v-29497" fill="#ffffff" rx="3" ry="3" stroke="#ffffff" stroke-width="20px" pointer-events="none" width="169.88951110839844" height="62.20524787902832" transform="matrix(1,0,0,1,-84.9000015258789,-31.100000381469727)"></rect><text id="v-29496" font-size="24px" y="0.8em" xml:space="preserve" text-anchor="middle" pointer-events="none" fill="#707070" font-family="Open Sans" font-weight="bold" transform="matrix(1,0,0,1,0,-24.5)"><tspan id="v-29498" class="v-line" dy="0em" x="0">authenticates</tspan><tspan id="v-29499" class="v-line" dy="1.2em" x="0">users using</tspan></text></g><g class="label" id="v-29500" label-idx="1"  transform="translate(1517, 1563.2)"><rect id="v-29502" fill="#ffffff" rx="3" ry="3" pointer-events="none" width="0" height="0" transform="matrix(1,0,0,1,0,0)"></rect><text id="v-29501" font-size="19px" y="0.8em" display="none" xml:space="preserve" text-anchor="middle" pointer-events="none" fill="#707070" font-family="Open Sans" font-weight="normal" transform="matrix(1,0,0,1,0,0)"><tspan id="v-29503" class="v-line v-empty-line" dy="0em" x="0" style="fill-opacity: 0; stroke-opacity: 0;">-</tspan></text></g></g><g class="marker-vertices" display="none"></g><g class="marker-arrowheads" id="v-29508" display="none"><g class="marker-arrowhead-group marker-arrowhead-group-source" id="v-29492"><path class="marker-arrowhead" end="source" d="M 26 0 L 0 13 L 26 26 z"></path></g><g class="marker-arrowhead-group marker-arrowhead-group-target" id="v-29493"><path class="marker-arrowhead" end="target" d="M 26 0 L 0 13 L 26 26 z"></path></g></g><g class="link-tools" id="v-29507" display="none"><g class="link-tool" id="v-29491" transform="translate(1616.5921630859375, 1414.13427734375) "><g class="tool-remove" event="remove"><circle r="11"></circle><path transform="scale(.8) translate(-16, -16)" d="M24.778,21.419 19.276,15.917 24.777,10.415 21.949,7.585 16.447,13.087 10.945,7.585 8.117,10.415 13.618,15.917 8.116,21.419 10.946,24.248 16.447,18.746 21.948,24.248z"></path><title>Remove link.</title></g><g class="tool-options" event="link:options"><circle r="11" transform="translate(25)"></circle><path fill="white" transform="scale(.55) translate(29, -16)" d="M31.229,17.736c0.064-0.571,0.104-1.148,0.104-1.736s-0.04-1.166-0.104-1.737l-4.377-1.557c-0.218-0.716-0.504-1.401-0.851-2.05l1.993-4.192c-0.725-0.91-1.549-1.734-2.458-2.459l-4.193,1.994c-0.647-0.347-1.334-0.632-2.049-0.849l-1.558-4.378C17.165,0.708,16.588,0.667,16,0.667s-1.166,0.041-1.737,0.105L12.707,5.15c-0.716,0.217-1.401,0.502-2.05,0.849L6.464,4.005C5.554,4.73,4.73,5.554,4.005,6.464l1.994,4.192c-0.347,0.648-0.632,1.334-0.849,2.05l-4.378,1.557C0.708,14.834,0.667,15.412,0.667,16s0.041,1.165,0.105,1.736l4.378,1.558c0.217,0.715,0.502,1.401,0.849,2.049l-1.994,4.193c0.725,0.909,1.549,1.733,2.459,2.458l4.192-1.993c0.648,0.347,1.334,0.633,2.05,0.851l1.557,4.377c0.571,0.064,1.148,0.104,1.737,0.104c0.588,0,1.165-0.04,1.736-0.104l1.558-4.377c0.715-0.218,1.399-0.504,2.049-0.851l4.193,1.993c0.909-0.725,1.733-1.549,2.458-2.458l-1.993-4.193c0.347-0.647,0.633-1.334,0.851-2.049L31.229,17.736zM16,20.871c-2.69,0-4.872-2.182-4.872-4.871c0-2.69,2.182-4.872,4.872-4.872c2.689,0,4.871,2.182,4.871,4.872C20.871,18.689,18.689,20.871,16,20.871z"></path><title>Link options.</title></g></g></g></g></g><defs id="v-4"></defs></svg>