<svg xmlns="http://www.w3.org/2000/svg" xmlns:xlink="http://www.w3.org/1999/xlink" version="1.1" viewBox="0 0 2500 1000"><g transform="translate(25,100)"><rect width="450" height="300" rx="3" ry="3" x="0" y="0" fill="#ffffff" stroke-width="5" stroke="#444444" stroke-dasharray="50,50"></rect><text x="225" y="125" text-anchor="middle" fill="#444444" font-size="30px" font-family="Open Sans"><tspan x="225">Gamezeug</tspan><tspan x="225" dy="42px" font-size="0.8em">[Software System]</tspan></text></g><g transform="translate(525,100)"><ellipse id="keyDatabaseinscopeCylinderBottom" cx="225" cy="255" rx="225" ry="45" stroke-width="5" stroke="#0f5eaa"></ellipse><rect id="keyDatabaseinscopeCylinderFace" x="0" y="45" width="450" height="210" stroke-width="5" stroke="#0f5eaa"></rect><clipPath id="keyDatabaseinscopeCylinderexpressStructurizrClipPath1" clipPathUnits="userSpaceOnUse"><use xmlns:xlink="http://www.w3.org/1999/xlink" xlink:href="#keyDatabaseinscopeCylinderBottom"></use><use xmlns:xlink="http://www.w3.org/1999/xlink" xlink:href="#keyDatabaseinscopeCylinderFace"></use></clipPath><rect x="0" y="45" width="450" height="300" clip-path="url(#keyDatabaseinscopeCylinderexpressStructurizrClipPath1)" fill="#1168bd" stroke-width="5" stroke="#0f5eaa"></rect><ellipse cx="225" cy="45" rx="225" ry="45" fill="#1168bd" stroke-width="5" stroke="#0f5eaa"></ellipse><text x="225" y="182.5" text-anchor="middle" fill="#ffffff" font-size="30px" font-family="Open Sans"><tspan x="225">Database in scope</tspan></text></g><g transform="translate(1025,100)"><rect width="450" height="300" rx="3" ry="3" x="0" y="0" fill="#757575" stroke-width="5" stroke="#696969"></rect><text x="225" y="137.5" text-anchor="middle" fill="#ffffff" font-size="30px" font-family="Open Sans"><tspan x="225">External system</tspan></text></g><g transform="translate(1525,100)"><ellipse id="keyMessagebusPipeRight" cx="405" cy="150" rx="45" ry="150" stroke-width="5" stroke="#0f5eaa"></ellipse><rect id="keyMessagebusPipeFace" x="45" y="0" width="360" height="300" stroke-width="5" stroke="#0f5eaa"></rect><clipPath id="keyMessagebusPipeexpressStructurizrClipPath1" clipPathUnits="userSpaceOnUse"><use xmlns:xlink="http://www.w3.org/1999/xlink" xlink:href="#keyMessagebusPipeRight"></use><use xmlns:xlink="http://www.w3.org/1999/xlink" xlink:href="#keyMessagebusPipeFace"></use></clipPath><rect x="45" y="0" width="405" height="300" clip-path="url(#keyMessagebusPipeexpressStructurizrClipPath1)" fill="#1168bd" stroke-width="5" stroke="#0f5eaa"></rect><ellipse cx="45" cy="150" rx="45" ry="150" fill="#1168bd" stroke-width="5" stroke="#0f5eaa"></ellipse><text x="225" y="137.5" text-anchor="middle" fill="#ffffff" font-size="30px" font-family="Open Sans"><tspan x="225">Message bus</tspan></text></g><g transform="translate(2025,25)"><rect x="0" y="180" width="450" height="270" rx="90" fill="#08427b" stroke-width="5" stroke="#073b6f"></rect><circle cx="225" cy="100" r="100" fill="#08427b" stroke-width="5" stroke="#073b6f"></circle><line x1="90" y1="300" x2="90" y2="450" stroke-width="5" stroke="#073b6f"></line><line x1="360" y1="300" x2="360" y2="450" stroke-width="5" stroke="#073b6f"></line><text x="225" y="312.5" text-anchor="middle" fill="#ffffff" font-size="30px" font-family="Open Sans"><tspan x="225">Person</tspan></text></g><g transform="translate(25,600)"><rect width="450" height="300" rx="3" ry="3" x="0" y="0" fill="#1168bd" stroke-width="5" stroke="#0f5eaa"></rect><text x="225" y="137.5" text-anchor="middle" fill="#ffffff" font-size="30px" font-family="Open Sans"><tspan x="225">System in scope</tspan></text></g><g transform="translate(525,670)"><path d="M390,0 L390,60 L450,30 L 390,0" style="fill:#707070" stroke-dasharray=""></path><path d="M0,30 L390,30" style="stroke:#707070; stroke-width: 6; fill: none; stroke-dasharray: 30 30;"></path><text x="225" y="97.5" text-anchor="middle" fill="#707070" font-size="30px" font-family="Open Sans"><tspan x="225">Relationship</tspan></text></g></svg>